<svg xmlns="http://www.w3.org/2000/svg" width="596" height="456" fill="none"><path fill="#E8E8E8" stroke="#BB6BD9" stroke-linejoin="round" d="M181.436 423.889h-16.167v14.901h16.167v-14.901Z"/><path fill="#CFCFCF" stroke="#BB6BD9" stroke-linejoin="round" d="M197.842 423.889h-16.168v14.901h16.168v-14.901Z"/><path fill="#333" stroke="#BB6BD9" stroke-linejoin="round" d="M214.26 423.889h-16.167v14.901h16.167v-14.901Z"/><path fill="#7D7D7D" stroke="#BB6BD9" stroke-linejoin="round" d="M230.678 423.889h-16.167v14.901h16.167v-14.901Z"/><path fill="#D4D4D4" stroke="#BB6BD9" stroke-linejoin="round" d="M247.096 423.889h-16.167v14.901h16.167v-14.901Z"/><path fill="#CFCFCF" stroke="#BB6BD9" stroke-linejoin="round" d="M263.515 423.889h-16.167v14.901h16.167v-14.901Z"/><path fill="#E8E8E8" stroke="#BB6BD9" stroke-linejoin="round" d="M279.92 423.889h-16.167v14.901h16.167v-14.901Z"/><path fill="#fff" stroke="#BB6BD9" stroke-linejoin="round" d="M296.338 423.889h-16.167v14.901h16.167v-14.901ZM312.757 423.889h-16.168v14.901h16.168v-14.901Z"/><path fill="#263238" stroke="#BB6BD9" d="M313.507 438.29v-13.901h15.168v13.901h-15.168Z"/><path fill="#fff" stroke="#BB6BD9" stroke-linejoin="round" d="M345.58 423.889h-16.167v14.901h16.167v-14.901ZM361.999 423.889h-16.168v14.901h16.168v-14.901Z"/><path fill="#E8E8E8" stroke="#BB6BD9" stroke-linejoin="round" d="M193.101 408.538h-16.167v14.901h16.167v-14.901Z"/><path fill="#CFCFCF" stroke="#BB6BD9" stroke-linejoin="round" d="M209.519 408.538h-16.167v14.901h16.167v-14.901Z"/><path fill="#333" stroke="#BB6BD9" stroke-linejoin="round" d="M225.937 408.538H209.77v14.901h16.167v-14.901Z"/><path fill="#7D7D7D" stroke="#BB6BD9" stroke-linejoin="round" d="M242.355 408.538h-16.167v14.901h16.167v-14.901Z"/><path fill="#D4D4D4" stroke="#BB6BD9" stroke-linejoin="round" d="M258.761 408.538h-16.167v14.901h16.167v-14.901Z"/><path fill="#CFCFCF" stroke="#BB6BD9" stroke-linejoin="round" d="M275.179 408.538h-16.168v14.901h16.168v-14.901Z"/><path fill="#E8E8E8" stroke="#BB6BD9" stroke-linejoin="round" d="M291.597 408.538H275.43v14.901h16.167v-14.901Z"/><path fill="#fff" stroke="#BB6BD9" stroke-linejoin="round" d="M308.015 408.538h-16.167v14.901h16.167v-14.901ZM324.421 408.538h-16.168v14.901h16.168v-14.901Z"/><path fill="#263238" stroke="#BB6BD9" d="M325.172 422.939v-13.901h15.167v13.901h-15.167Z"/><path fill="#fff" stroke="#BB6BD9" stroke-linejoin="round" d="M357.257 408.538H341.09v14.901h16.167v-14.901ZM373.675 408.538h-16.167v14.901h16.167v-14.901Z"/><path fill="#E8E8E8" stroke="#BB6BD9" stroke-linejoin="round" d="M192.273 393.177h-16.168v14.901h16.168v-14.901Z"/><path fill="#CFCFCF" stroke="#BB6BD9" stroke-linejoin="round" d="M208.691 393.177h-16.167v14.901h16.167v-14.901Z"/><path fill="#333" stroke="#BB6BD9" stroke-linejoin="round" d="M225.097 393.177h-16.168v14.901h16.168v-14.901Z"/><path fill="#7D7D7D" stroke="#BB6BD9" stroke-linejoin="round" d="M241.515 393.177h-16.167v14.901h16.167v-14.901Z"/><path fill="#D4D4D4" stroke="#BB6BD9" stroke-linejoin="round" d="M257.933 393.177h-16.167v14.901h16.167v-14.901Z"/><path fill="#CFCFCF" stroke="#BB6BD9" stroke-linejoin="round" d="M274.351 393.177h-16.167v14.901h16.167v-14.901Z"/><path fill="#E8E8E8" stroke="#BB6BD9" stroke-linejoin="round" d="M290.757 393.177H274.59v14.901h16.167v-14.901Z"/><path fill="#fff" stroke="#BB6BD9" stroke-linejoin="round" d="M307.175 393.177h-16.167v14.901h16.167v-14.901ZM323.593 393.177h-16.167v14.901h16.167v-14.901Z"/><path fill="#263238" stroke="#BB6BD9" d="M324.344 407.578v-13.901h15.167v13.901h-15.167Z"/><path fill="#fff" stroke="#BB6BD9" stroke-linejoin="round" d="M356.43 393.177h-16.168v14.901h16.168v-14.901ZM372.835 393.177h-16.167v14.901h16.167v-14.901Z"/><path fill="#E8E8E8" stroke="#BB6BD9" stroke-linejoin="round" d="M191.433 377.827h-16.168v14.9h16.168v-14.9Z"/><path fill="#CFCFCF" stroke="#BB6BD9" stroke-linejoin="round" d="M207.851 377.827h-16.167v14.9h16.167v-14.9Z"/><path fill="#333" stroke="#BB6BD9" stroke-linejoin="round" d="M224.269 377.827h-16.167v14.9h16.167v-14.9Z"/><path fill="#7D7D7D" stroke="#BB6BD9" stroke-linejoin="round" d="M240.687 377.827H224.52v14.9h16.167v-14.9Z"/><path fill="#D4D4D4" stroke="#BB6BD9" stroke-linejoin="round" d="M257.093 377.827h-16.167v14.9h16.167v-14.9Z"/><path fill="#CFCFCF" stroke="#BB6BD9" stroke-linejoin="round" d="M273.511 377.827h-16.167v14.9h16.167v-14.9Z"/><path fill="#E8E8E8" stroke="#BB6BD9" stroke-linejoin="round" d="M289.929 377.827h-16.167v14.9h16.167v-14.9Z"/><path fill="#fff" stroke="#BB6BD9" stroke-linejoin="round" d="M306.347 377.827H290.18v14.9h16.167v-14.9ZM322.766 377.827h-16.168v14.9h16.168v-14.9Z"/><path fill="#263238" stroke="#BB6BD9" d="M323.504 392.227v-13.9h15.167v13.9h-15.167Z"/><path fill="#fff" stroke="#BB6BD9" stroke-linejoin="round" d="M355.589 377.827h-16.167v14.9h16.167v-14.9ZM372.008 377.827H355.84v14.9h16.168v-14.9Z"/><path fill="#E8E8E8" stroke="#BB6BD9" stroke-linejoin="round" d="M177.26 362.465h-16.167v14.901h16.167v-14.901Z"/><path fill="#CFCFCF" stroke="#BB6BD9" stroke-linejoin="round" d="M193.678 362.465H177.51v14.901h16.168v-14.901Z"/><path fill="#333" stroke="#BB6BD9" stroke-linejoin="round" d="M210.096 362.465h-16.168v14.901h16.168v-14.901Z"/><path fill="#7D7D7D" stroke="#BB6BD9" stroke-linejoin="round" d="M226.514 362.465h-16.167v14.901h16.167v-14.901Z"/><path fill="#D4D4D4" stroke="#BB6BD9" stroke-linejoin="round" d="M242.92 362.465h-16.168v14.901h16.168v-14.901Z"/><path fill="#CFCFCF" stroke="#BB6BD9" stroke-linejoin="round" d="M259.338 362.465H243.17v14.901h16.168v-14.901Z"/><path fill="#E8E8E8" stroke="#BB6BD9" stroke-linejoin="round" d="M275.756 362.465h-16.167v14.901h16.167v-14.901Z"/><path fill="#fff" stroke="#BB6BD9" stroke-linejoin="round" d="M292.174 362.465h-16.167v14.901h16.167v-14.901ZM308.58 362.465h-16.168v14.901h16.168v-14.901Z"/><path fill="#263238" stroke="#BB6BD9" d="M309.331 376.866v-13.901h15.167v13.901h-15.167Z"/><path fill="#fff" stroke="#BB6BD9" stroke-linejoin="round" d="M341.416 362.465h-16.167v14.901h16.167v-14.901ZM357.834 362.465h-16.167v14.901h16.167v-14.901Z"/><path fill="#E8E8E8" stroke="#BB6BD9" stroke-linejoin="round" d="M178.928 347.104H162.76v14.901h16.168v-14.901Z"/><path fill="#CFCFCF" stroke="#BB6BD9" stroke-linejoin="round" d="M195.346 347.104h-16.168v14.901h16.168v-14.901Z"/><path fill="#333" stroke="#BB6BD9" stroke-linejoin="round" d="M211.764 347.104h-16.167v14.901h16.167v-14.901Z"/><path fill="#7D7D7D" stroke="#BB6BD9" stroke-linejoin="round" d="M228.182 347.104h-16.167v14.901h16.167v-14.901Z"/><path fill="#D4D4D4" stroke="#BB6BD9" stroke-linejoin="round" d="M244.588 347.104H228.42v14.901h16.168v-14.901Z"/><path fill="#CFCFCF" stroke="#BB6BD9" stroke-linejoin="round" d="M261.006 347.104h-16.167v14.901h16.167v-14.901Z"/><path fill="#E8E8E8" stroke="#BB6BD9" stroke-linejoin="round" d="M277.424 347.104h-16.167v14.901h16.167v-14.901Z"/><path fill="#fff" stroke="#BB6BD9" stroke-linejoin="round" d="M293.842 347.104h-16.167v14.901h16.167v-14.901ZM310.248 347.104h-16.167v14.901h16.167v-14.901Z"/><path fill="#263238" stroke="#BB6BD9" d="M310.999 361.505v-13.901h15.167v13.901h-15.167Z"/><path fill="#fff" stroke="#BB6BD9" stroke-linejoin="round" d="M343.084 347.104h-16.167v14.901h16.167v-14.901ZM359.503 347.104h-16.168v14.901h16.168v-14.901Z"/><path fill="#E8E8E8" stroke="#BB6BD9" stroke-linejoin="round" d="M198.105 331.754h-16.167v14.9h16.167v-14.9Z"/><path fill="#CFCFCF" stroke="#BB6BD9" stroke-linejoin="round" d="M214.524 331.754h-16.168v14.9h16.168v-14.9Z"/><path fill="#333" stroke="#BB6BD9" stroke-linejoin="round" d="M230.942 331.754h-16.168v14.9h16.168v-14.9Z"/><path fill="#7D7D7D" stroke="#BB6BD9" stroke-linejoin="round" d="M247.36 331.754h-16.168v14.9h16.168v-14.9Z"/><path fill="#D4D4D4" stroke="#BB6BD9" stroke-linejoin="round" d="M263.766 331.754h-16.168v14.9h16.168v-14.9Z"/><path fill="#CFCFCF" stroke="#BB6BD9" stroke-linejoin="round" d="M280.184 331.754h-16.168v14.9h16.168v-14.9Z"/><path fill="#E8E8E8" stroke="#BB6BD9" stroke-linejoin="round" d="M296.602 331.754h-16.168v14.9h16.168v-14.9Z"/><path fill="#fff" stroke="#BB6BD9" stroke-linejoin="round" d="M313.02 331.754h-16.167v14.9h16.167v-14.9ZM329.425 331.754h-16.167v14.9h16.167v-14.9Z"/><path fill="#263238" stroke="#BB6BD9" d="M330.176 346.154v-13.9h15.167v13.9h-15.167Z"/><path fill="#fff" stroke="#BB6BD9" stroke-linejoin="round" d="M362.262 331.754h-16.167v14.9h16.167v-14.9ZM378.68 331.754h-16.167v14.9h16.167v-14.9Z"/><path fill="#E8E8E8" stroke="#BB6BD9" stroke-linejoin="round" d="M175.591 316.393h-16.167v14.9h16.167v-14.9Z"/><path fill="#CFCFCF" stroke="#BB6BD9" stroke-linejoin="round" d="M192.009 316.393h-16.167v14.9h16.167v-14.9Z"/><path fill="#333" stroke="#BB6BD9" stroke-linejoin="round" d="M208.428 316.393h-16.167v14.9h16.167v-14.9Z"/><path fill="#7D7D7D" stroke="#BB6BD9" stroke-linejoin="round" d="M224.846 316.393h-16.167v14.9h16.167v-14.9Z"/><path fill="#D4D4D4" stroke="#BB6BD9" stroke-linejoin="round" d="M241.251 316.393h-16.167v14.9h16.167v-14.9Z"/><path fill="#CFCFCF" stroke="#BB6BD9" stroke-linejoin="round" d="M257.67 316.393h-16.167v14.9h16.167v-14.9Z"/><path fill="#E8E8E8" stroke="#BB6BD9" stroke-linejoin="round" d="M274.088 316.393h-16.167v14.9h16.167v-14.9Z"/><path fill="#fff" stroke="#BB6BD9" stroke-linejoin="round" d="M290.506 316.393h-16.167v14.9h16.167v-14.9ZM306.912 316.393h-16.167v14.9h16.167v-14.9ZM323.33 316.393h-16.167v14.9h16.167v-14.9Z"/><path fill="#263238" stroke="#BB6BD9" d="M324.081 330.793v-13.9h15.167v13.9h-15.167Z"/><path fill="#fff" stroke="#BB6BD9" stroke-linejoin="round" d="M356.166 316.393h-16.167v14.9h16.167v-14.9Z"/><path fill="#E8E8E8" stroke="#BB6BD9" stroke-linejoin="round" d="M196.437 301.031H180.27v14.901h16.167v-14.901Z"/><path fill="#CFCFCF" stroke="#BB6BD9" stroke-linejoin="round" d="M212.855 301.031h-16.167v14.901h16.167v-14.901Z"/><path fill="#333" stroke="#BB6BD9" stroke-linejoin="round" d="M229.274 301.031h-16.168v14.901h16.168v-14.901Z"/><path fill="#7D7D7D" stroke="#BB6BD9" stroke-linejoin="round" d="M245.692 301.031h-16.168v14.901h16.168v-14.901Z"/><path fill="#D4D4D4" stroke="#BB6BD9" stroke-linejoin="round" d="M262.097 301.031H245.93v14.901h16.167v-14.901Z"/><path fill="#CFCFCF" stroke="#BB6BD9" stroke-linejoin="round" d="M278.516 301.031h-16.168v14.901h16.168v-14.901Z"/><path fill="#E8E8E8" stroke="#BB6BD9" stroke-linejoin="round" d="M294.934 301.031h-16.168v14.901h16.168v-14.901Z"/><path fill="#fff" stroke="#BB6BD9" stroke-linejoin="round" d="M311.352 301.031h-16.168v14.901h16.168v-14.901ZM327.757 301.031H311.59v14.901h16.167v-14.901Z"/><path fill="#263238" stroke="#BB6BD9" d="M328.508 315.432v-13.901h15.168v13.901h-15.168Z"/><path fill="#fff" stroke="#BB6BD9" stroke-linejoin="round" d="M360.594 301.031h-16.168v14.901h16.168v-14.901ZM377.012 301.031h-16.168v14.901h16.168v-14.901Z"/><path fill="#E8E8E8" stroke="#BB6BD9" stroke-linejoin="round" d="M198.105 285.681h-16.167v14.9h16.167v-14.9Z"/><path fill="#CFCFCF" stroke="#BB6BD9" stroke-linejoin="round" d="M214.524 285.681h-16.168v14.9h16.168v-14.9Z"/><path fill="#333" stroke="#BB6BD9" stroke-linejoin="round" d="M230.942 285.681h-16.168v14.9h16.168v-14.9Z"/><path fill="#7D7D7D" stroke="#BB6BD9" stroke-linejoin="round" d="M247.36 285.681h-16.168v14.9h16.168v-14.9Z"/><path fill="#D4D4D4" stroke="#BB6BD9" stroke-linejoin="round" d="M263.766 285.681h-16.168v14.9h16.168v-14.9Z"/><path fill="#CFCFCF" stroke="#BB6BD9" stroke-linejoin="round" d="M280.184 285.681h-16.168v14.9h16.168v-14.9Z"/><path fill="#E8E8E8" stroke="#BB6BD9" stroke-linejoin="round" d="M296.602 285.681h-16.168v14.9h16.168v-14.9Z"/><path fill="#fff" stroke="#BB6BD9" stroke-linejoin="round" d="M313.02 285.681h-16.167v14.9h16.167v-14.9ZM329.425 285.681h-16.167v14.9h16.167v-14.9Z"/><path fill="#263238" stroke="#BB6BD9" d="M330.176 300.081v-13.9h15.167v13.9h-15.167Z"/><path fill="#fff" stroke="#BB6BD9" stroke-linejoin="round" d="M362.262 285.681h-16.167v14.9h16.167v-14.9ZM378.68 285.681h-16.167v14.9h16.167v-14.9Z"/><path fill="#E8E8E8" stroke="#BB6BD9" stroke-linejoin="round" d="M181.436 270.32h-16.167v14.9h16.167v-14.9Z"/><path fill="#CFCFCF" stroke="#BB6BD9" stroke-linejoin="round" d="M197.842 270.32h-16.168v14.9h16.168v-14.9Z"/><path fill="#333" stroke="#BB6BD9" stroke-linejoin="round" d="M214.26 270.32h-16.167v14.9h16.167v-14.9Z"/><path fill="#7D7D7D" stroke="#BB6BD9" stroke-linejoin="round" d="M230.678 270.32h-16.167v14.9h16.167v-14.9Z"/><path fill="#D4D4D4" stroke="#BB6BD9" stroke-linejoin="round" d="M247.096 270.32h-16.167v14.9h16.167v-14.9Z"/><path fill="#CFCFCF" stroke="#BB6BD9" stroke-linejoin="round" d="M263.515 270.32h-16.167v14.9h16.167v-14.9Z"/><path fill="#E8E8E8" stroke="#BB6BD9" stroke-linejoin="round" d="M279.92 270.32h-16.167v14.9h16.167v-14.9Z"/><path fill="#fff" stroke="#BB6BD9" stroke-linejoin="round" d="M296.338 270.32h-16.167v14.9h16.167v-14.9ZM312.757 270.32h-16.168v14.9h16.168v-14.9Z"/><path fill="#263238" stroke="#BB6BD9" d="M313.507 284.72v-13.9h15.168v13.9h-15.168Z"/><path fill="#fff" stroke="#BB6BD9" stroke-linejoin="round" d="M345.58 270.32h-16.167v14.9h16.167v-14.9ZM361.999 270.32h-16.168v14.9h16.168v-14.9Z"/><path fill="#E8E8E8" stroke="#BB6BD9" stroke-linejoin="round" d="M199.774 254.959h-16.168v14.9h16.168v-14.9Z"/><path fill="#CFCFCF" stroke="#BB6BD9" stroke-linejoin="round" d="M216.191 254.959h-16.167v14.9h16.167v-14.9Z"/><path fill="#333" stroke="#BB6BD9" stroke-linejoin="round" d="M232.61 254.959h-16.167v14.9h16.167v-14.9Z"/><path fill="#7D7D7D" stroke="#BB6BD9" stroke-linejoin="round" d="M249.028 254.959h-16.167v14.9h16.167v-14.9Z"/><path fill="#D4D4D4" stroke="#BB6BD9" stroke-linejoin="round" d="M265.433 254.959h-16.167v14.9h16.167v-14.9Z"/><path fill="#CFCFCF" stroke="#BB6BD9" stroke-linejoin="round" d="M281.852 254.959h-16.167v14.9h16.167v-14.9Z"/><path fill="#E8E8E8" stroke="#BB6BD9" stroke-linejoin="round" d="M298.27 254.959h-16.167v14.9h16.167v-14.9Z"/><path fill="#fff" stroke="#BB6BD9" stroke-linejoin="round" d="M314.688 254.959h-16.167v14.9h16.167v-14.9ZM331.094 254.959h-16.167v14.9h16.167v-14.9Z"/><path fill="#263238" stroke="#BB6BD9" d="M331.845 269.359v-13.9h15.167v13.9h-15.167Z"/><path fill="#fff" stroke="#BB6BD9" stroke-linejoin="round" d="M363.93 254.959h-16.167v14.9h16.167v-14.9ZM380.348 254.959h-16.167v14.9h16.167v-14.9Z"/><path fill="#E8E8E8" stroke="#BB6BD9" stroke-linejoin="round" d="M195.885 239.608h-16.167v14.9h16.167v-14.9Z"/><path fill="#CFCFCF" stroke="#BB6BD9" stroke-linejoin="round" d="M212.303 239.608h-16.167v14.9h16.167v-14.9Z"/><path fill="#333" stroke="#BB6BD9" stroke-linejoin="round" d="M228.721 239.608h-16.167v14.9h16.167v-14.9Z"/><path fill="#7D7D7D" stroke="#BB6BD9" stroke-linejoin="round" d="M245.14 239.608h-16.167v14.9h16.167v-14.9Z"/><path fill="#D4D4D4" stroke="#BB6BD9" stroke-linejoin="round" d="M261.545 239.608h-16.167v14.9h16.167v-14.9Z"/><path fill="#CFCFCF" stroke="#BB6BD9" stroke-linejoin="round" d="M277.963 239.608h-16.167v14.9h16.167v-14.9Z"/><path fill="#E8E8E8" stroke="#BB6BD9" stroke-linejoin="round" d="M294.382 239.608h-16.167v14.9h16.167v-14.9Z"/><path fill="#fff" stroke="#BB6BD9" stroke-linejoin="round" d="M310.8 239.608h-16.167v14.9H310.8v-14.9ZM327.205 239.608h-16.167v14.9h16.167v-14.9Z"/><path fill="#263238" stroke="#BB6BD9" d="M327.957 254.008v-13.9h15.167v13.9h-15.167Z"/><path fill="#fff" stroke="#BB6BD9" stroke-linejoin="round" d="M360.042 239.608h-16.167v14.9h16.167v-14.9ZM376.46 239.608h-16.168v14.9h16.168v-14.9Z"/><path fill="#E8E8E8" stroke="#BB6BD9" stroke-linejoin="round" d="M194.769 224.247h-16.168v14.9h16.168v-14.9Z"/><path fill="#CFCFCF" stroke="#BB6BD9" stroke-linejoin="round" d="M211.187 224.247H195.02v14.9h16.167v-14.9Z"/><path fill="#333" stroke="#BB6BD9" stroke-linejoin="round" d="M227.605 224.247h-16.167v14.9h16.167v-14.9Z"/><path fill="#7D7D7D" stroke="#BB6BD9" stroke-linejoin="round" d="M244.023 224.247h-16.167v14.9h16.167v-14.9Z"/><path fill="#D4D4D4" stroke="#BB6BD9" stroke-linejoin="round" d="M260.429 224.247h-16.167v14.9h16.167v-14.9Z"/><path fill="#CFCFCF" stroke="#BB6BD9" stroke-linejoin="round" d="M276.847 224.247H260.68v14.9h16.167v-14.9Z"/><path fill="#E8E8E8" stroke="#BB6BD9" stroke-linejoin="round" d="M293.265 224.247h-16.167v14.9h16.167v-14.9Z"/><path fill="#fff" stroke="#BB6BD9" stroke-linejoin="round" d="M309.684 224.247h-16.168v14.9h16.168v-14.9ZM326.089 224.247h-16.167v14.9h16.167v-14.9Z"/><path fill="#263238" stroke="#BB6BD9" d="M326.84 238.647v-13.9h15.167v13.9H326.84Z"/><path fill="#fff" stroke="#BB6BD9" stroke-linejoin="round" d="M358.926 224.247h-16.168v14.9h16.168v-14.9ZM375.344 224.247h-16.168v14.9h16.168v-14.9Z"/><path fill="#E8E8E8" stroke="#BB6BD9" stroke-linejoin="round" d="M197.089 208.896h-16.167v14.9h16.167v-14.9Z"/><path fill="#CFCFCF" stroke="#BB6BD9" stroke-linejoin="round" d="M213.495 208.896h-16.167v14.9h16.167v-14.9Z"/><path fill="#333" stroke="#BB6BD9" stroke-linejoin="round" d="M229.913 208.896h-16.167v14.9h16.167v-14.9Z"/><path fill="#7D7D7D" stroke="#BB6BD9" stroke-linejoin="round" d="M246.331 208.896h-16.167v14.9h16.167v-14.9Z"/><path fill="#D4D4D4" stroke="#BB6BD9" stroke-linejoin="round" d="M262.749 208.896h-16.167v14.9h16.167v-14.9Z"/><path fill="#CFCFCF" stroke="#BB6BD9" stroke-linejoin="round" d="M279.155 208.896h-16.167v14.9h16.167v-14.9Z"/><path fill="#E8E8E8" stroke="#BB6BD9" stroke-linejoin="round" d="M295.573 208.896h-16.167v14.9h16.167v-14.9Z"/><path fill="#fff" stroke="#BB6BD9" stroke-linejoin="round" d="M311.991 208.896h-16.167v14.9h16.167v-14.9ZM328.409 208.896h-16.167v14.9h16.167v-14.9Z"/><path fill="#263238" stroke="#BB6BD9" d="M329.148 223.296v-13.9h15.167v13.9h-15.167Z"/><path fill="#fff" stroke="#BB6BD9" stroke-linejoin="round" d="M361.233 208.896h-16.167v14.9h16.167v-14.9ZM377.651 208.896h-16.167v14.9h16.167v-14.9Z"/><path fill="#E8E8E8" stroke="#BB6BD9" stroke-linejoin="round" d="M194.769 193.535h-16.168v14.9h16.168v-14.9Z"/><path fill="#CFCFCF" stroke="#BB6BD9" stroke-linejoin="round" d="M211.187 193.535H195.02v14.9h16.167v-14.9Z"/><path fill="#333" stroke="#BB6BD9" stroke-linejoin="round" d="M227.605 193.535h-16.167v14.9h16.167v-14.9Z"/><path fill="#7D7D7D" stroke="#BB6BD9" stroke-linejoin="round" d="M244.023 193.535h-16.167v14.9h16.167v-14.9Z"/><path fill="#D4D4D4" stroke="#BB6BD9" stroke-linejoin="round" d="M260.429 193.535h-16.167v14.9h16.167v-14.9Z"/><path fill="#CFCFCF" stroke="#BB6BD9" stroke-linejoin="round" d="M276.847 193.535H260.68v14.9h16.167v-14.9Z"/><path fill="#E8E8E8" stroke="#BB6BD9" stroke-linejoin="round" d="M293.265 193.535h-16.167v14.9h16.167v-14.9Z"/><path fill="#fff" stroke="#BB6BD9" stroke-linejoin="round" d="M309.684 193.535h-16.168v14.9h16.168v-14.9ZM326.089 193.535h-16.167v14.9h16.167v-14.9Z"/><path fill="#263238" stroke="#BB6BD9" d="M326.84 207.935v-13.9h15.167v13.9H326.84Z"/><path fill="#fff" stroke="#BB6BD9" stroke-linejoin="round" d="M358.926 193.535h-16.168v14.9h16.168v-14.9ZM375.344 193.535h-16.168v14.9h16.168v-14.9Z"/><path fill="#E8E8E8" stroke="#BB6BD9" stroke-linejoin="round" d="M197.516 178.174h-16.168v14.9h16.168v-14.9Z"/><path fill="#CFCFCF" stroke="#BB6BD9" stroke-linejoin="round" d="M213.934 178.174h-16.167v14.9h16.167v-14.9Z"/><path fill="#333" stroke="#BB6BD9" stroke-linejoin="round" d="M230.352 178.174h-16.167v14.9h16.167v-14.9Z"/><path fill="#7D7D7D" stroke="#BB6BD9" stroke-linejoin="round" d="M246.758 178.174H230.59v14.9h16.168v-14.9Z"/><path fill="#D4D4D4" stroke="#BB6BD9" stroke-linejoin="round" d="M263.176 178.174h-16.167v14.9h16.167v-14.9Z"/><path fill="#CFCFCF" stroke="#BB6BD9" stroke-linejoin="round" d="M279.594 178.174h-16.167v14.9h16.167v-14.9Z"/><path fill="#E8E8E8" stroke="#BB6BD9" stroke-linejoin="round" d="M296.012 178.174h-16.167v14.9h16.167v-14.9Z"/><path fill="#fff" stroke="#BB6BD9" stroke-linejoin="round" d="M312.418 178.174h-16.167v14.9h16.167v-14.9ZM328.836 178.174h-16.167v14.9h16.167v-14.9Z"/><path fill="#263238" stroke="#BB6BD9" d="M329.587 192.574v-13.9h15.167v13.9h-15.167Z"/><path fill="#fff" stroke="#BB6BD9" stroke-linejoin="round" d="M361.673 178.174h-16.168v14.9h16.168v-14.9ZM378.078 178.174h-16.167v14.9h16.167v-14.9Z"/><path fill="#E8E8E8" stroke="#BB6BD9" stroke-linejoin="round" d="M188.109 162.823h-16.167v14.9h16.167v-14.9Z"/><path fill="#CFCFCF" stroke="#BB6BD9" stroke-linejoin="round" d="M204.514 162.823h-16.167v14.9h16.167v-14.9Z"/><path fill="#333" stroke="#BB6BD9" stroke-linejoin="round" d="M220.933 162.823h-16.167v14.9h16.167v-14.9Z"/><path fill="#7D7D7D" stroke="#BB6BD9" stroke-linejoin="round" d="M237.351 162.823h-16.168v14.9h16.168v-14.9Z"/><path fill="#D4D4D4" stroke="#BB6BD9" stroke-linejoin="round" d="M253.769 162.823h-16.168v14.9h16.168v-14.9Z"/><path fill="#CFCFCF" stroke="#BB6BD9" stroke-linejoin="round" d="M270.175 162.823h-16.168v14.9h16.168v-14.9Z"/><path fill="#E8E8E8" stroke="#BB6BD9" stroke-linejoin="round" d="M286.593 162.823h-16.168v14.9h16.168v-14.9Z"/><path fill="#fff" stroke="#BB6BD9" stroke-linejoin="round" d="M303.011 162.823h-16.168v14.9h16.168v-14.9ZM319.429 162.823h-16.167v14.9h16.167v-14.9Z"/><path fill="#263238" stroke="#BB6BD9" d="M320.167 177.223v-13.9h15.168v13.9h-15.168Z"/><path fill="#fff" stroke="#BB6BD9" stroke-linejoin="round" d="M352.253 162.823h-16.168v14.9h16.168v-14.9ZM368.671 162.823h-16.167v14.9h16.167v-14.9Z"/><path fill="#E8E8E8" stroke="#BB6BD9" stroke-linejoin="round" d="M195.885 147.175h-16.167v14.901h16.167v-14.901Z"/><path fill="#CFCFCF" stroke="#BB6BD9" stroke-linejoin="round" d="M212.303 147.175h-16.167v14.901h16.167v-14.901Z"/><path fill="#333" stroke="#BB6BD9" stroke-linejoin="round" d="M228.721 147.175h-16.167v14.901h16.167v-14.901Z"/><path fill="#7D7D7D" stroke="#BB6BD9" stroke-linejoin="round" d="M245.14 147.175h-16.167v14.901h16.167v-14.901Z"/><path fill="#D4D4D4" stroke="#BB6BD9" stroke-linejoin="round" d="M261.545 147.175h-16.167v14.901h16.167v-14.901Z"/><path fill="#CFCFCF" stroke="#BB6BD9" stroke-linejoin="round" d="M277.963 147.175h-16.167v14.901h16.167v-14.901Z"/><path fill="#E8E8E8" stroke="#BB6BD9" stroke-linejoin="round" d="M294.382 147.175h-16.167v14.901h16.167v-14.901Z"/><path fill="#fff" stroke="#BB6BD9" stroke-linejoin="round" d="M310.8 147.175h-16.167v14.901H310.8v-14.901ZM327.205 147.175h-16.167v14.901h16.167v-14.901Z"/><path fill="#263238" stroke="#BB6BD9" d="M327.957 161.576v-13.901h15.167v13.901h-15.167Z"/><path fill="#fff" stroke="#BB6BD9" stroke-linejoin="round" d="M360.042 147.175h-16.167v14.901h16.167v-14.901ZM376.46 147.175h-16.168v14.901h16.168v-14.901Z"/><path fill="#E8E8E8" stroke="#BB6BD9" stroke-linejoin="round" d="M194.769 131.825h-16.168v14.9h16.168v-14.9Z"/><path fill="#CFCFCF" stroke="#BB6BD9" stroke-linejoin="round" d="M211.187 131.825H195.02v14.9h16.167v-14.9Z"/><path fill="#333" stroke="#BB6BD9" stroke-linejoin="round" d="M227.605 131.825h-16.167v14.9h16.167v-14.9Z"/><path fill="#7D7D7D" stroke="#BB6BD9" stroke-linejoin="round" d="M244.023 131.825h-16.167v14.9h16.167v-14.9Z"/><path fill="#D4D4D4" stroke="#BB6BD9" stroke-linejoin="round" d="M260.429 131.825h-16.167v14.9h16.167v-14.9Z"/><path fill="#CFCFCF" stroke="#BB6BD9" stroke-linejoin="round" d="M276.847 131.825H260.68v14.9h16.167v-14.9Z"/><path fill="#E8E8E8" stroke="#BB6BD9" stroke-linejoin="round" d="M293.265 131.825h-16.167v14.9h16.167v-14.9Z"/><path fill="#fff" stroke="#BB6BD9" stroke-linejoin="round" d="M309.684 131.825h-16.168v14.9h16.168v-14.9ZM326.089 131.825h-16.167v14.9h16.167v-14.9Z"/><path fill="#263238" stroke="#BB6BD9" d="M326.84 146.225v-13.9h15.167v13.9H326.84Z"/><path fill="#fff" stroke="#BB6BD9" stroke-linejoin="round" d="M358.926 131.825h-16.168v14.9h16.168v-14.9ZM375.344 131.825h-16.168v14.9h16.168v-14.9Z"/><path fill="#E8E8E8" stroke="#BB6BD9" stroke-linejoin="round" d="M197.089 116.463h-16.167v14.901h16.167v-14.901Z"/><path fill="#CFCFCF" stroke="#BB6BD9" stroke-linejoin="round" d="M213.495 116.463h-16.167v14.901h16.167v-14.901Z"/><path fill="#333" stroke="#BB6BD9" stroke-linejoin="round" d="M229.913 116.463h-16.167v14.901h16.167v-14.901Z"/><path fill="#7D7D7D" stroke="#BB6BD9" stroke-linejoin="round" d="M246.331 116.463h-16.167v14.901h16.167v-14.901Z"/><path fill="#D4D4D4" stroke="#BB6BD9" stroke-linejoin="round" d="M262.749 116.463h-16.167v14.901h16.167v-14.901Z"/><path fill="#CFCFCF" stroke="#BB6BD9" stroke-linejoin="round" d="M279.155 116.463h-16.167v14.901h16.167v-14.901Z"/><path fill="#E8E8E8" stroke="#BB6BD9" stroke-linejoin="round" d="M295.573 116.463h-16.167v14.901h16.167v-14.901Z"/><path fill="#fff" stroke="#BB6BD9" stroke-linejoin="round" d="M311.991 116.463h-16.167v14.901h16.167v-14.901ZM328.409 116.463h-16.167v14.901h16.167v-14.901Z"/><path fill="#263238" stroke="#BB6BD9" d="M329.148 130.864v-13.901h15.167v13.901h-15.167Z"/><path fill="#fff" stroke="#BB6BD9" stroke-linejoin="round" d="M361.233 116.463h-16.167v14.901h16.167v-14.901ZM377.651 116.463h-16.167v14.901h16.167v-14.901Z"/><path fill="#E8E8E8" stroke="#BB6BD9" stroke-linejoin="round" d="M194.769 101.102h-16.168v14.901h16.168v-14.901Z"/><path fill="#CFCFCF" stroke="#BB6BD9" stroke-linejoin="round" d="M211.187 101.102H195.02v14.901h16.167v-14.901Z"/><path fill="#333" stroke="#BB6BD9" stroke-linejoin="round" d="M227.605 101.102h-16.167v14.901h16.167v-14.901Z"/><path fill="#7D7D7D" stroke="#BB6BD9" stroke-linejoin="round" d="M244.023 101.102h-16.167v14.901h16.167v-14.901Z"/><path fill="#D4D4D4" stroke="#BB6BD9" stroke-linejoin="round" d="M260.429 101.102h-16.167v14.901h16.167v-14.901Z"/><path fill="#CFCFCF" stroke="#BB6BD9" stroke-linejoin="round" d="M276.847 101.102H260.68v14.901h16.167v-14.901Z"/><path fill="#E8E8E8" stroke="#BB6BD9" stroke-linejoin="round" d="M293.265 101.102h-16.167v14.901h16.167v-14.901Z"/><path fill="#fff" stroke="#BB6BD9" stroke-linejoin="round" d="M309.684 101.102h-16.168v14.901h16.168v-14.901ZM326.089 101.102h-16.167v14.901h16.167v-14.901Z"/><path fill="#263238" stroke="#BB6BD9" d="M326.84 115.503v-13.901h15.167v13.901H326.84Z"/><path fill="#fff" stroke="#BB6BD9" stroke-linejoin="round" d="M358.926 101.102h-16.168v14.901h16.168v-14.901ZM375.344 101.102h-16.168v14.901h16.168v-14.901Z"/><path fill="#E8E8E8" stroke="#BB6BD9" stroke-linejoin="round" d="M197.516 85.752h-16.168v14.9h16.168v-14.9Z"/><path fill="#CFCFCF" stroke="#BB6BD9" stroke-linejoin="round" d="M213.934 85.752h-16.167v14.9h16.167v-14.9Z"/><path fill="#333" stroke="#BB6BD9" stroke-linejoin="round" d="M230.352 85.752h-16.167v14.9h16.167v-14.9Z"/><path fill="#7D7D7D" stroke="#BB6BD9" stroke-linejoin="round" d="M246.758 85.752H230.59v14.9h16.168v-14.9Z"/><path fill="#D4D4D4" stroke="#BB6BD9" stroke-linejoin="round" d="M263.176 85.752h-16.167v14.9h16.167v-14.9Z"/><path fill="#CFCFCF" stroke="#BB6BD9" stroke-linejoin="round" d="M279.594 85.752h-16.167v14.9h16.167v-14.9Z"/><path fill="#E8E8E8" stroke="#BB6BD9" stroke-linejoin="round" d="M296.012 85.752h-16.167v14.9h16.167v-14.9Z"/><path fill="#fff" stroke="#BB6BD9" stroke-linejoin="round" d="M312.418 85.752h-16.167v14.9h16.167v-14.9ZM328.836 85.752h-16.167v14.9h16.167v-14.9Z"/><path fill="#263238" stroke="#BB6BD9" d="M329.587 100.152v-13.9h15.167v13.9h-15.167Z"/><path fill="#fff" stroke="#BB6BD9" stroke-linejoin="round" d="M361.673 85.752h-16.168v14.9h16.168v-14.9ZM378.078 85.752h-16.167v14.9h16.167v-14.9Z"/><path fill="#E8E8E8" stroke="#BB6BD9" stroke-linejoin="round" d="M188.109 70.39h-16.167v14.901h16.167v-14.9Z"/><path fill="#CFCFCF" stroke="#BB6BD9" stroke-linejoin="round" d="M204.514 70.39h-16.167v14.901h16.167v-14.9Z"/><path fill="#333" stroke="#BB6BD9" stroke-linejoin="round" d="M220.933 70.39h-16.167v14.901h16.167v-14.9Z"/><path fill="#7D7D7D" stroke="#BB6BD9" stroke-linejoin="round" d="M237.351 70.39h-16.168v14.901h16.168v-14.9Z"/><path fill="#D4D4D4" stroke="#BB6BD9" stroke-linejoin="round" d="M253.769 70.39h-16.168v14.901h16.168v-14.9Z"/><path fill="#CFCFCF" stroke="#BB6BD9" stroke-linejoin="round" d="M270.175 70.39h-16.168v14.901h16.168v-14.9Z"/><path fill="#E8E8E8" stroke="#BB6BD9" stroke-linejoin="round" d="M286.593 70.39h-16.168v14.901h16.168v-14.9Z"/><path fill="#fff" stroke="#BB6BD9" stroke-linejoin="round" d="M303.011 70.39h-16.168v14.901h16.168v-14.9ZM319.429 70.39h-16.167v14.901h16.167v-14.9Z"/><path fill="#263238" stroke="#BB6BD9" d="M320.167 84.791v-13.9h15.168v13.9h-15.168Z"/><path fill="#fff" stroke="#BB6BD9" stroke-linejoin="round" d="M352.253 70.39h-16.168v14.901h16.168v-14.9ZM368.671 70.39h-16.167v14.901h16.167v-14.9Z"/><path fill="#E8E8E8" stroke="#BB6BD9" stroke-linejoin="round" d="M320.545 423.889h-16.167v14.901h16.167v-14.901Z"/><path fill="#CFCFCF" stroke="#BB6BD9" stroke-linejoin="round" d="M336.963 423.889h-16.167v14.901h16.167v-14.901Z"/><path fill="#333" stroke="#BB6BD9" stroke-linejoin="round" d="M353.369 423.889h-16.167v14.901h16.167v-14.901Z"/><path fill="#7D7D7D" stroke="#BB6BD9" stroke-linejoin="round" d="M369.787 423.889H353.62v14.901h16.167v-14.901Z"/><path fill="#D4D4D4" stroke="#BB6BD9" stroke-linejoin="round" d="M386.205 423.889h-16.167v14.901h16.167v-14.901Z"/><path fill="#CFCFCF" stroke="#BB6BD9" stroke-linejoin="round" d="M402.624 423.889h-16.167v14.901h16.167v-14.901Z"/><path fill="#E8E8E8" stroke="#BB6BD9" stroke-linejoin="round" d="M419.029 423.889h-16.167v14.901h16.167v-14.901Z"/><path fill="#fff" stroke="#BB6BD9" stroke-linejoin="round" d="M435.447 423.889H419.28v14.901h16.167v-14.901ZM451.866 423.889h-16.168v14.901h16.168v-14.901Z"/><path fill="#263238" stroke="#BB6BD9" d="M452.616 438.29v-13.901h15.168v13.901h-15.168Z"/><path fill="#fff" stroke="#BB6BD9" stroke-linejoin="round" d="M484.689 423.889h-16.167v14.901h16.167v-14.901ZM501.108 423.889H484.94v14.901h16.168v-14.901Z"/><path fill="#E8E8E8" stroke="#BB6BD9" stroke-linejoin="round" d="M332.223 408.538h-16.168v14.901h16.168v-14.901Z"/><path fill="#CFCFCF" stroke="#BB6BD9" stroke-linejoin="round" d="M348.628 408.538h-16.167v14.901h16.167v-14.901Z"/><path fill="#333" stroke="#BB6BD9" stroke-linejoin="round" d="M365.046 408.538h-16.167v14.901h16.167v-14.901Z"/><path fill="#7D7D7D" stroke="#BB6BD9" stroke-linejoin="round" d="M381.465 408.538h-16.168v14.901h16.168v-14.901Z"/><path fill="#D4D4D4" stroke="#BB6BD9" stroke-linejoin="round" d="M397.883 408.538h-16.168v14.901h16.168v-14.901Z"/><path fill="#CFCFCF" stroke="#BB6BD9" stroke-linejoin="round" d="M414.289 408.538h-16.168v14.901h16.168v-14.901Z"/><path fill="#E8E8E8" stroke="#BB6BD9" stroke-linejoin="round" d="M430.706 408.538h-16.167v14.901h16.167v-14.901Z"/><path fill="#fff" stroke="#BB6BD9" stroke-linejoin="round" d="M447.124 408.538h-16.167v14.901h16.167v-14.901ZM463.543 408.538h-16.167v14.901h16.167v-14.901Z"/><path fill="#263238" stroke="#BB6BD9" d="M464.281 422.939v-13.901h15.167v13.901h-15.167Z"/><path fill="#fff" stroke="#BB6BD9" stroke-linejoin="round" d="M496.366 408.538h-16.167v14.901h16.167v-14.901ZM512.785 408.538h-16.167v14.901h16.167v-14.901Z"/><path fill="#E8E8E8" stroke="#BB6BD9" stroke-linejoin="round" d="M331.382 393.177h-16.167v14.901h16.167v-14.901Z"/><path fill="#CFCFCF" stroke="#BB6BD9" stroke-linejoin="round" d="M347.8 393.177h-16.167v14.901H347.8v-14.901Z"/><path fill="#333" stroke="#BB6BD9" stroke-linejoin="round" d="M364.218 393.177h-16.167v14.901h16.167v-14.901Z"/><path fill="#7D7D7D" stroke="#BB6BD9" stroke-linejoin="round" d="M380.624 393.177h-16.167v14.901h16.167v-14.901Z"/><path fill="#D4D4D4" stroke="#BB6BD9" stroke-linejoin="round" d="M397.042 393.177h-16.167v14.901h16.167v-14.901Z"/><path fill="#CFCFCF" stroke="#BB6BD9" stroke-linejoin="round" d="M413.46 393.177h-16.167v14.901h16.167v-14.901Z"/><path fill="#E8E8E8" stroke="#BB6BD9" stroke-linejoin="round" d="M429.879 393.177h-16.167v14.901h16.167v-14.901Z"/><path fill="#fff" stroke="#BB6BD9" stroke-linejoin="round" d="M446.284 393.177h-16.167v14.901h16.167v-14.901ZM462.702 393.177h-16.167v14.901h16.167v-14.901Z"/><path fill="#263238" stroke="#BB6BD9" d="M463.453 407.578v-13.901h15.168v13.901h-15.168Z"/><path fill="#fff" stroke="#BB6BD9" stroke-linejoin="round" d="M495.539 393.177h-16.168v14.901h16.168v-14.901ZM511.944 393.177h-16.167v14.901h16.167v-14.901Z"/><path fill="#E8E8E8" stroke="#BB6BD9" stroke-linejoin="round" d="M330.554 377.827h-16.167v14.9h16.167v-14.9Z"/><path fill="#CFCFCF" stroke="#BB6BD9" stroke-linejoin="round" d="M346.96 377.827h-16.167v14.9h16.167v-14.9Z"/><path fill="#333" stroke="#BB6BD9" stroke-linejoin="round" d="M363.378 377.827h-16.167v14.9h16.167v-14.9Z"/><path fill="#7D7D7D" stroke="#BB6BD9" stroke-linejoin="round" d="M379.796 377.827h-16.167v14.9h16.167v-14.9Z"/><path fill="#D4D4D4" stroke="#BB6BD9" stroke-linejoin="round" d="M396.215 377.827h-16.168v14.9h16.168v-14.9Z"/><path fill="#CFCFCF" stroke="#BB6BD9" stroke-linejoin="round" d="M412.62 377.827h-16.167v14.9h16.167v-14.9Z"/><path fill="#E8E8E8" stroke="#BB6BD9" stroke-linejoin="round" d="M429.038 377.827h-16.167v14.9h16.167v-14.9Z"/><path fill="#fff" stroke="#BB6BD9" stroke-linejoin="round" d="M445.457 377.827h-16.168v14.9h16.168v-14.9ZM461.875 377.827h-16.168v14.9h16.168v-14.9Z"/><path fill="#263238" stroke="#BB6BD9" d="M462.613 392.227v-13.9h15.167v13.9h-15.167Z"/><path fill="#fff" stroke="#BB6BD9" stroke-linejoin="round" d="M494.699 377.827h-16.168v14.9h16.168v-14.9ZM511.117 377.827h-16.168v14.9h16.168v-14.9Z"/><path fill="#E8E8E8" stroke="#BB6BD9" stroke-linejoin="round" d="M316.381 362.465h-16.167v14.901h16.167v-14.901Z"/><path fill="#CFCFCF" stroke="#BB6BD9" stroke-linejoin="round" d="M332.787 362.465H316.62v14.901h16.167v-14.901Z"/><path fill="#333" stroke="#BB6BD9" stroke-linejoin="round" d="M349.205 362.465h-16.167v14.901h16.167v-14.901Z"/><path fill="#7D7D7D" stroke="#BB6BD9" stroke-linejoin="round" d="M365.623 362.465h-16.167v14.901h16.167v-14.901Z"/><path fill="#D4D4D4" stroke="#BB6BD9" stroke-linejoin="round" d="M382.041 362.465h-16.167v14.901h16.167v-14.901Z"/><path fill="#CFCFCF" stroke="#BB6BD9" stroke-linejoin="round" d="M398.447 362.465H382.28v14.901h16.167v-14.901Z"/><path fill="#E8E8E8" stroke="#BB6BD9" stroke-linejoin="round" d="M414.865 362.465h-16.167v14.901h16.167v-14.901Z"/><path fill="#fff" stroke="#BB6BD9" stroke-linejoin="round" d="M431.283 362.465h-16.167v14.901h16.167v-14.901ZM447.701 362.465h-16.167v14.901h16.167v-14.901Z"/><path fill="#263238" stroke="#BB6BD9" d="M448.44 376.866v-13.901h15.167v13.901H448.44Z"/><path fill="#fff" stroke="#BB6BD9" stroke-linejoin="round" d="M480.525 362.465h-16.167v14.901h16.167v-14.901ZM496.943 362.465h-16.167v14.901h16.167v-14.901Z"/><path fill="#E8E8E8" stroke="#BB6BD9" stroke-linejoin="round" d="M318.037 347.104h-16.168v14.901h16.168v-14.901Z"/><path fill="#CFCFCF" stroke="#BB6BD9" stroke-linejoin="round" d="M334.455 347.104h-16.167v14.901h16.167v-14.901Z"/><path fill="#333" stroke="#BB6BD9" stroke-linejoin="round" d="M350.873 347.104h-16.167v14.901h16.167v-14.901Z"/><path fill="#7D7D7D" stroke="#BB6BD9" stroke-linejoin="round" d="M367.291 347.104h-16.167v14.901h16.167v-14.901Z"/><path fill="#D4D4D4" stroke="#BB6BD9" stroke-linejoin="round" d="M383.697 347.104H367.53v14.901h16.167v-14.901Z"/><path fill="#CFCFCF" stroke="#BB6BD9" stroke-linejoin="round" d="M400.115 347.104h-16.167v14.901h16.167v-14.901Z"/><path fill="#E8E8E8" stroke="#BB6BD9" stroke-linejoin="round" d="M416.533 347.104h-16.167v14.901h16.167v-14.901Z"/><path fill="#fff" stroke="#BB6BD9" stroke-linejoin="round" d="M432.951 347.104h-16.167v14.901h16.167v-14.901ZM449.37 347.104h-16.168v14.901h16.168v-14.901Z"/><path fill="#263238" stroke="#BB6BD9" d="M450.108 361.505v-13.901h15.167v13.901h-15.167Z"/><path fill="#fff" stroke="#BB6BD9" stroke-linejoin="round" d="M482.194 347.104h-16.168v14.901h16.168v-14.901ZM498.612 347.104h-16.168v14.901h16.168v-14.901Z"/><path fill="#E8E8E8" stroke="#BB6BD9" stroke-linejoin="round" d="M337.215 331.754h-16.168v14.9h16.168v-14.9Z"/><path fill="#CFCFCF" stroke="#BB6BD9" stroke-linejoin="round" d="M353.633 331.754h-16.168v14.9h16.168v-14.9Z"/><path fill="#333" stroke="#BB6BD9" stroke-linejoin="round" d="M370.051 331.754h-16.168v14.9h16.168v-14.9Z"/><path fill="#7D7D7D" stroke="#BB6BD9" stroke-linejoin="round" d="M386.469 331.754h-16.168v14.9h16.168v-14.9Z"/><path fill="#D4D4D4" stroke="#BB6BD9" stroke-linejoin="round" d="M402.887 331.754H386.72v14.9h16.167v-14.9Z"/><path fill="#CFCFCF" stroke="#BB6BD9" stroke-linejoin="round" d="M419.293 331.754h-16.168v14.9h16.168v-14.9Z"/><path fill="#E8E8E8" stroke="#BB6BD9" stroke-linejoin="round" d="M435.711 331.754h-16.168v14.9h16.168v-14.9Z"/><path fill="#fff" stroke="#BB6BD9" stroke-linejoin="round" d="M452.129 331.754h-16.167v14.9h16.167v-14.9ZM468.547 331.754H452.38v14.9h16.167v-14.9Z"/><path fill="#263238" stroke="#BB6BD9" d="M469.285 346.154v-13.9h15.167v13.9h-15.167Z"/><path fill="#fff" stroke="#BB6BD9" stroke-linejoin="round" d="M501.371 331.754h-16.167v14.9h16.167v-14.9ZM517.789 331.754h-16.167v14.9h16.167v-14.9Z"/><path fill="#E8E8E8" stroke="#BB6BD9" stroke-linejoin="round" d="M314.713 316.393h-16.167v14.9h16.167v-14.9Z"/><path fill="#CFCFCF" stroke="#BB6BD9" stroke-linejoin="round" d="M331.119 316.393h-16.167v14.9h16.167v-14.9Z"/><path fill="#333" stroke="#BB6BD9" stroke-linejoin="round" d="M347.537 316.393H331.37v14.9h16.167v-14.9Z"/><path fill="#7D7D7D" stroke="#BB6BD9" stroke-linejoin="round" d="M363.955 316.393h-16.167v14.9h16.167v-14.9Z"/><path fill="#D4D4D4" stroke="#BB6BD9" stroke-linejoin="round" d="M380.373 316.393h-16.167v14.9h16.167v-14.9Z"/><path fill="#CFCFCF" stroke="#BB6BD9" stroke-linejoin="round" d="M396.779 316.393h-16.167v14.9h16.167v-14.9Z"/><path fill="#E8E8E8" stroke="#BB6BD9" stroke-linejoin="round" d="M413.197 316.393H397.03v14.9h16.167v-14.9Z"/><path fill="#fff" stroke="#BB6BD9" stroke-linejoin="round" d="M429.615 316.393h-16.167v14.9h16.167v-14.9ZM446.034 316.393h-16.168v14.9h16.168v-14.9ZM462.439 316.393h-16.167v14.9h16.167v-14.9Z"/><path fill="#263238" stroke="#BB6BD9" d="M463.19 330.793v-13.9h15.167v13.9H463.19Z"/><path fill="#fff" stroke="#BB6BD9" stroke-linejoin="round" d="M495.275 316.393h-16.167v14.9h16.167v-14.9Z"/><path fill="#E8E8E8" stroke="#BB6BD9" stroke-linejoin="round" d="M335.559 301.031h-16.168v14.901h16.168v-14.901Z"/><path fill="#CFCFCF" stroke="#BB6BD9" stroke-linejoin="round" d="M351.964 301.031h-16.167v14.901h16.167v-14.901Z"/><path fill="#333" stroke="#BB6BD9" stroke-linejoin="round" d="M368.383 301.031h-16.168v14.901h16.168v-14.901Z"/><path fill="#7D7D7D" stroke="#BB6BD9" stroke-linejoin="round" d="M384.801 301.031h-16.168v14.901h16.168v-14.901Z"/><path fill="#D4D4D4" stroke="#BB6BD9" stroke-linejoin="round" d="M401.219 301.031h-16.168v14.901h16.168v-14.901Z"/><path fill="#CFCFCF" stroke="#BB6BD9" stroke-linejoin="round" d="M417.625 301.031h-16.168v14.901h16.168v-14.901Z"/><path fill="#E8E8E8" stroke="#BB6BD9" stroke-linejoin="round" d="M434.043 301.031h-16.168v14.901h16.168v-14.901Z"/><path fill="#fff" stroke="#BB6BD9" stroke-linejoin="round" d="M450.461 301.031h-16.168v14.901h16.168v-14.901ZM466.879 301.031h-16.167v14.901h16.167v-14.901Z"/><path fill="#263238" stroke="#BB6BD9" d="M467.617 315.432v-13.901h15.168v13.901h-15.168Z"/><path fill="#fff" stroke="#BB6BD9" stroke-linejoin="round" d="M499.703 301.031h-16.168v14.901h16.168v-14.901ZM516.121 301.031h-16.167v14.901h16.167v-14.901Z"/><path fill="#E8E8E8" stroke="#BB6BD9" stroke-linejoin="round" d="M337.215 285.681h-16.168v14.9h16.168v-14.9Z"/><path fill="#CFCFCF" stroke="#BB6BD9" stroke-linejoin="round" d="M353.633 285.681h-16.168v14.9h16.168v-14.9Z"/><path fill="#333" stroke="#BB6BD9" stroke-linejoin="round" d="M370.051 285.681h-16.168v14.9h16.168v-14.9Z"/><path fill="#7D7D7D" stroke="#BB6BD9" stroke-linejoin="round" d="M386.469 285.681h-16.168v14.9h16.168v-14.9Z"/><path fill="#D4D4D4" stroke="#BB6BD9" stroke-linejoin="round" d="M402.887 285.681H386.72v14.9h16.167v-14.9Z"/><path fill="#CFCFCF" stroke="#BB6BD9" stroke-linejoin="round" d="M419.293 285.681h-16.168v14.9h16.168v-14.9Z"/><path fill="#E8E8E8" stroke="#BB6BD9" stroke-linejoin="round" d="M435.711 285.681h-16.168v14.9h16.168v-14.9Z"/><path fill="#fff" stroke="#BB6BD9" stroke-linejoin="round" d="M452.129 285.681h-16.167v14.9h16.167v-14.9ZM468.547 285.681H452.38v14.9h16.167v-14.9Z"/><path fill="#263238" stroke="#BB6BD9" d="M469.285 300.081v-13.9h15.167v13.9h-15.167Z"/><path fill="#fff" stroke="#BB6BD9" stroke-linejoin="round" d="M501.371 285.681h-16.167v14.9h16.167v-14.9ZM517.789 285.681h-16.167v14.9h16.167v-14.9Z"/><path fill="#E8E8E8" stroke="#BB6BD9" stroke-linejoin="round" d="M320.545 270.32h-16.167v14.9h16.167v-14.9Z"/><path fill="#CFCFCF" stroke="#BB6BD9" stroke-linejoin="round" d="M336.963 270.32h-16.167v14.9h16.167v-14.9Z"/><path fill="#333" stroke="#BB6BD9" stroke-linejoin="round" d="M353.369 270.32h-16.167v14.9h16.167v-14.9Z"/><path fill="#7D7D7D" stroke="#BB6BD9" stroke-linejoin="round" d="M369.787 270.32H353.62v14.9h16.167v-14.9Z"/><path fill="#D4D4D4" stroke="#BB6BD9" stroke-linejoin="round" d="M386.205 270.32h-16.167v14.9h16.167v-14.9Z"/><path fill="#CFCFCF" stroke="#BB6BD9" stroke-linejoin="round" d="M402.624 270.32h-16.167v14.9h16.167v-14.9Z"/><path fill="#E8E8E8" stroke="#BB6BD9" stroke-linejoin="round" d="M419.029 270.32h-16.167v14.9h16.167v-14.9Z"/><path fill="#fff" stroke="#BB6BD9" stroke-linejoin="round" d="M435.447 270.32H419.28v14.9h16.167v-14.9ZM451.866 270.32h-16.168v14.9h16.168v-14.9Z"/><path fill="#263238" stroke="#BB6BD9" d="M452.616 284.72v-13.9h15.168v13.9h-15.168Z"/><path fill="#fff" stroke="#BB6BD9" stroke-linejoin="round" d="M484.689 270.32h-16.167v14.9h16.167v-14.9ZM501.108 270.32H484.94v14.9h16.168v-14.9Z"/><path fill="#E8E8E8" stroke="#BB6BD9" stroke-linejoin="round" d="M338.883 254.959h-16.168v14.9h16.168v-14.9Z"/><path fill="#CFCFCF" stroke="#BB6BD9" stroke-linejoin="round" d="M355.3 254.959h-16.167v14.9H355.3v-14.9Z"/><path fill="#333" stroke="#BB6BD9" stroke-linejoin="round" d="M371.719 254.959h-16.167v14.9h16.167v-14.9Z"/><path fill="#7D7D7D" stroke="#BB6BD9" stroke-linejoin="round" d="M388.137 254.959H371.97v14.9h16.167v-14.9Z"/><path fill="#D4D4D4" stroke="#BB6BD9" stroke-linejoin="round" d="M404.542 254.959h-16.167v14.9h16.167v-14.9Z"/><path fill="#CFCFCF" stroke="#BB6BD9" stroke-linejoin="round" d="M420.961 254.959h-16.167v14.9h16.167v-14.9Z"/><path fill="#E8E8E8" stroke="#BB6BD9" stroke-linejoin="round" d="M437.379 254.959h-16.167v14.9h16.167v-14.9Z"/><path fill="#fff" stroke="#BB6BD9" stroke-linejoin="round" d="M453.797 254.959H437.63v14.9h16.167v-14.9ZM470.216 254.959h-16.168v14.9h16.168v-14.9Z"/><path fill="#263238" stroke="#BB6BD9" d="M470.954 269.359v-13.9h15.167v13.9h-15.167Z"/><path fill="#fff" stroke="#BB6BD9" stroke-linejoin="round" d="M503.04 254.959h-16.168v14.9h16.168v-14.9ZM519.457 254.959H503.29v14.9h16.167v-14.9Z"/><path fill="#E8E8E8" stroke="#BB6BD9" stroke-linejoin="round" d="M335.007 239.608H318.84v14.9h16.167v-14.9Z"/><path fill="#CFCFCF" stroke="#BB6BD9" stroke-linejoin="round" d="M351.412 239.608h-16.167v14.9h16.167v-14.9Z"/><path fill="#333" stroke="#BB6BD9" stroke-linejoin="round" d="M367.83 239.608h-16.167v14.9h16.167v-14.9Z"/><path fill="#7D7D7D" stroke="#BB6BD9" stroke-linejoin="round" d="M384.249 239.608h-16.167v14.9h16.167v-14.9Z"/><path fill="#D4D4D4" stroke="#BB6BD9" stroke-linejoin="round" d="M400.667 239.608H384.5v14.9h16.167v-14.9Z"/><path fill="#CFCFCF" stroke="#BB6BD9" stroke-linejoin="round" d="M417.072 239.608h-16.167v14.9h16.167v-14.9Z"/><path fill="#E8E8E8" stroke="#BB6BD9" stroke-linejoin="round" d="M433.491 239.608h-16.167v14.9h16.167v-14.9Z"/><path fill="#fff" stroke="#BB6BD9" stroke-linejoin="round" d="M449.909 239.608h-16.167v14.9h16.167v-14.9ZM466.327 239.608H450.16v14.9h16.167v-14.9Z"/><path fill="#263238" stroke="#BB6BD9" d="M467.066 254.008v-13.9h15.167v13.9h-15.167Z"/><path fill="#fff" stroke="#BB6BD9" stroke-linejoin="round" d="M499.151 239.608h-16.167v14.9h16.167v-14.9ZM515.569 239.608h-16.167v14.9h16.167v-14.9Z"/><path fill="#E8E8E8" stroke="#BB6BD9" stroke-linejoin="round" d="M333.89 224.247h-16.167v14.9h16.167v-14.9Z"/><path fill="#CFCFCF" stroke="#BB6BD9" stroke-linejoin="round" d="M350.296 224.247h-16.167v14.9h16.167v-14.9Z"/><path fill="#333" stroke="#BB6BD9" stroke-linejoin="round" d="M366.714 224.247h-16.167v14.9h16.167v-14.9Z"/><path fill="#7D7D7D" stroke="#BB6BD9" stroke-linejoin="round" d="M383.132 224.247h-16.167v14.9h16.167v-14.9Z"/><path fill="#D4D4D4" stroke="#BB6BD9" stroke-linejoin="round" d="M399.551 224.247h-16.167v14.9h16.167v-14.9Z"/><path fill="#CFCFCF" stroke="#BB6BD9" stroke-linejoin="round" d="M415.956 224.247h-16.167v14.9h16.167v-14.9Z"/><path fill="#E8E8E8" stroke="#BB6BD9" stroke-linejoin="round" d="M432.374 224.247h-16.167v14.9h16.167v-14.9Z"/><path fill="#fff" stroke="#BB6BD9" stroke-linejoin="round" d="M448.793 224.247h-16.168v14.9h16.168v-14.9ZM465.211 224.247h-16.167v14.9h16.167v-14.9Z"/><path fill="#263238" stroke="#BB6BD9" d="M465.949 238.647v-13.9h15.167v13.9h-15.167Z"/><path fill="#fff" stroke="#BB6BD9" stroke-linejoin="round" d="M498.035 224.247h-16.168v14.9h16.168v-14.9ZM514.453 224.247h-16.168v14.9h16.168v-14.9Z"/><path fill="#E8E8E8" stroke="#BB6BD9" stroke-linejoin="round" d="M336.199 208.896h-16.168v14.9h16.168v-14.9Z"/><path fill="#CFCFCF" stroke="#BB6BD9" stroke-linejoin="round" d="M352.617 208.896h-16.168v14.9h16.168v-14.9Z"/><path fill="#333" stroke="#BB6BD9" stroke-linejoin="round" d="M369.023 208.896h-16.168v14.9h16.168v-14.9Z"/><path fill="#7D7D7D" stroke="#BB6BD9" stroke-linejoin="round" d="M385.44 208.896h-16.167v14.9h16.167v-14.9Z"/><path fill="#D4D4D4" stroke="#BB6BD9" stroke-linejoin="round" d="M401.858 208.896h-16.167v14.9h16.167v-14.9Z"/><path fill="#CFCFCF" stroke="#BB6BD9" stroke-linejoin="round" d="M418.277 208.896H402.11v14.9h16.167v-14.9Z"/><path fill="#E8E8E8" stroke="#BB6BD9" stroke-linejoin="round" d="M434.682 208.896h-16.167v14.9h16.167v-14.9Z"/><path fill="#fff" stroke="#BB6BD9" stroke-linejoin="round" d="M451.1 208.896h-16.167v14.9H451.1v-14.9ZM467.519 208.896h-16.167v14.9h16.167v-14.9Z"/><path fill="#263238" stroke="#BB6BD9" d="M468.27 223.296v-13.9h15.167v13.9H468.27Z"/><path fill="#fff" stroke="#BB6BD9" stroke-linejoin="round" d="M500.342 208.896h-16.167v14.9h16.167v-14.9ZM516.76 208.896h-16.167v14.9h16.167v-14.9Z"/><path fill="#E8E8E8" stroke="#BB6BD9" stroke-linejoin="round" d="M333.89 193.535h-16.167v14.9h16.167v-14.9Z"/><path fill="#CFCFCF" stroke="#BB6BD9" stroke-linejoin="round" d="M350.296 193.535h-16.167v14.9h16.167v-14.9Z"/><path fill="#333" stroke="#BB6BD9" stroke-linejoin="round" d="M366.714 193.535h-16.167v14.9h16.167v-14.9Z"/><path fill="#7D7D7D" stroke="#BB6BD9" stroke-linejoin="round" d="M383.132 193.535h-16.167v14.9h16.167v-14.9Z"/><path fill="#D4D4D4" stroke="#BB6BD9" stroke-linejoin="round" d="M399.551 193.535h-16.167v14.9h16.167v-14.9Z"/><path fill="#CFCFCF" stroke="#BB6BD9" stroke-linejoin="round" d="M415.956 193.535h-16.167v14.9h16.167v-14.9Z"/><path fill="#E8E8E8" stroke="#BB6BD9" stroke-linejoin="round" d="M432.374 193.535h-16.167v14.9h16.167v-14.9Z"/><path fill="#fff" stroke="#BB6BD9" stroke-linejoin="round" d="M448.793 193.535h-16.168v14.9h16.168v-14.9ZM465.211 193.535h-16.167v14.9h16.167v-14.9Z"/><path fill="#263238" stroke="#BB6BD9" d="M465.949 207.935v-13.9h15.167v13.9h-15.167Z"/><path fill="#fff" stroke="#BB6BD9" stroke-linejoin="round" d="M498.035 193.535h-16.168v14.9h16.168v-14.9ZM514.453 193.535h-16.168v14.9h16.168v-14.9Z"/><path fill="#E8E8E8" stroke="#BB6BD9" stroke-linejoin="round" d="M336.625 178.174h-16.168v14.9h16.168v-14.9Z"/><path fill="#CFCFCF" stroke="#BB6BD9" stroke-linejoin="round" d="M353.043 178.174h-16.167v14.9h16.167v-14.9Z"/><path fill="#333" stroke="#BB6BD9" stroke-linejoin="round" d="M369.461 178.174h-16.167v14.9h16.167v-14.9Z"/><path fill="#7D7D7D" stroke="#BB6BD9" stroke-linejoin="round" d="M385.867 178.174h-16.168v14.9h16.168v-14.9Z"/><path fill="#D4D4D4" stroke="#BB6BD9" stroke-linejoin="round" d="M402.285 178.174h-16.167v14.9h16.167v-14.9Z"/><path fill="#CFCFCF" stroke="#BB6BD9" stroke-linejoin="round" d="M418.703 178.174h-16.167v14.9h16.167v-14.9Z"/><path fill="#E8E8E8" stroke="#BB6BD9" stroke-linejoin="round" d="M435.121 178.174h-16.167v14.9h16.167v-14.9Z"/><path fill="#fff" stroke="#BB6BD9" stroke-linejoin="round" d="M451.54 178.174h-16.168v14.9h16.168v-14.9ZM467.945 178.174h-16.167v14.9h16.167v-14.9Z"/><path fill="#263238" stroke="#BB6BD9" d="M468.696 192.574v-13.9h15.168v13.9h-15.168Z"/><path fill="#fff" stroke="#BB6BD9" stroke-linejoin="round" d="M500.782 178.174h-16.168v14.9h16.168v-14.9ZM517.2 178.174h-16.168v14.9H517.2v-14.9Z"/><path fill="#E8E8E8" stroke="#BB6BD9" stroke-linejoin="round" d="M327.218 162.823h-16.167v14.9h16.167v-14.9Z"/><path fill="#CFCFCF" stroke="#BB6BD9" stroke-linejoin="round" d="M343.624 162.823h-16.167v14.9h16.167v-14.9Z"/><path fill="#333" stroke="#BB6BD9" stroke-linejoin="round" d="M360.042 162.823h-16.167v14.9h16.167v-14.9Z"/><path fill="#7D7D7D" stroke="#BB6BD9" stroke-linejoin="round" d="M376.46 162.823h-16.168v14.9h16.168v-14.9Z"/><path fill="#D4D4D4" stroke="#BB6BD9" stroke-linejoin="round" d="M392.878 162.823h-16.167v14.9h16.167v-14.9Z"/><path fill="#CFCFCF" stroke="#BB6BD9" stroke-linejoin="round" d="M409.296 162.823h-16.167v14.9h16.167v-14.9Z"/><path fill="#E8E8E8" stroke="#BB6BD9" stroke-linejoin="round" d="M425.702 162.823h-16.168v14.9h16.168v-14.9Z"/><path fill="#fff" stroke="#BB6BD9" stroke-linejoin="round" d="M442.12 162.823h-16.167v14.9h16.167v-14.9ZM458.538 162.823h-16.167v14.9h16.167v-14.9Z"/><path fill="#263238" stroke="#BB6BD9" d="M459.289 177.223v-13.9h15.167v13.9h-15.167Z"/><path fill="#fff" stroke="#BB6BD9" stroke-linejoin="round" d="M491.362 162.823h-16.167v14.9h16.167v-14.9ZM507.78 162.823h-16.167v14.9h16.167v-14.9Z"/><path fill="#263238" stroke="#BB6BD9" stroke-miterlimit="10" d="M404.592 324.191v99.893h-6.472v14.767h-90.896l97.368-114.66Z"/><path fill="#fff" stroke="#BB6BD9" stroke-miterlimit="10" d="M388.725 377.407c-.288.501-.577 1.023-.878 1.515-.075.143-.163.276-.25.429a138.744 138.744 0 0 1-6.46 9.876c-.1.133-.188.256-.276.399a134.87 134.87 0 0 1-7.525 9.487l-.351.389a131.066 131.066 0 0 1-8.592 9.057c-.119.133-.249.26-.389.379a127.27 127.27 0 0 1-9.896 8.555l-.451.358a119.737 119.737 0 0 1-11.59 7.921l-.501.307a104.366 104.366 0 0 1-13.973 7.031l-.652.266c-5.992 2.449-12.389 4.173-18.989 5.117-.339 0-.69.102-1.029.133-8.921 1.278-18.107.278-26.306-2.863-8.198-3.141-15.008-8.271-19.499-14.688-.201-.235-.364-.481-.54-.727-3.34-4.738-5.82-9.847-7.362-15.166-.075-.195-.125-.389-.176-.584a65.75 65.75 0 0 1-2.408-13.304 3.631 3.631 0 0 1 0-.511 81.096 81.096 0 0 1 0-12.332v-.502c.328-3.903.897-7.79 1.706-11.646.024-.162.062-.323.113-.481.778-3.684 1.781-7.43 3.01-11.196l.151-.46a121.371 121.371 0 0 1 4.139-10.766 2.86 2.86 0 0 0 .188-.43 134.038 134.038 0 0 1 5.18-10.367c.075-.154.15-.287.226-.43l.865-1.525a138.159 138.159 0 0 1 5.28-8.473l.276-.42a137.232 137.232 0 0 1 7.137-9.62c.099-.135.208-.265.326-.389a136.896 136.896 0 0 1 8.203-9.21l.364-.369a127.375 127.375 0 0 1 9.457-8.729c.128-.127.266-.246.414-.358 3.457-2.9 7.117-5.634 10.962-8.187.175-.103.339-.215.502-.328a111.21 111.21 0 0 1 13.094-7.348l.589-.276c5.29-2.509 10.917-4.511 16.77-5.966l.84-.185c11.966-2.753 23.63-2.435 33.865 1.505 10.235 3.94 18.086 11.052 23.166 20.304.113.215.238.43.339.644 2.393 4.597 4.123 9.405 5.155 14.328 0 .184.087.379.113.553a71.25 71.25 0 0 1 1.467 12.904v.533a86.944 86.944 0 0 1-.652 12.096 3.406 3.406 0 0 1-.075.491 95 95 0 0 1-2.095 11.534c0 .164-.075.317-.113.471-.92 3.643-2.057 7.32-3.411 11.032-.04.155-.091.309-.151.46a128.062 128.062 0 0 1-4.49 10.633c-.075.144-.151.287-.213.43-1.405 2.92-2.94 5.82-4.604 8.699Z"/><path fill="#fff" stroke="#BB6BD9" stroke-linejoin="round" d="M388.725 377.407c-.288.501-.577 1.023-.878 1.515-.075.143-.163.276-.25.429a138.744 138.744 0 0 1-6.46 9.876c-.1.133-.188.256-.276.399a134.87 134.87 0 0 1-7.525 9.487l-.351.389a131.066 131.066 0 0 1-8.592 9.057c-.119.133-.249.26-.389.379a127.27 127.27 0 0 1-9.896 8.555l-.451.358a119.737 119.737 0 0 1-11.59 7.921l-.501.307a104.366 104.366 0 0 1-13.973 7.031l-.652.266c-5.992 2.449-12.389 4.173-18.989 5.117l-1.029.133c-8.921 1.278-18.107.278-26.306-2.863-8.198-3.141-15.008-8.271-19.499-14.688-.201-.235-.364-.481-.54-.727-3.34-4.738-5.82-9.847-7.362-15.166-.075-.195-.125-.389-.176-.584a65.75 65.75 0 0 1-2.408-13.304 3.631 3.631 0 0 1 0-.511 81.096 81.096 0 0 1 0-12.332v-.502c.328-3.903.897-7.79 1.706-11.646.024-.162.062-.323.113-.481.778-3.684 1.781-7.43 3.01-11.196l.151-.46a121.371 121.371 0 0 1 4.139-10.766 2.86 2.86 0 0 0 .188-.43 134.038 134.038 0 0 1 5.18-10.367c.075-.154.15-.287.226-.43l.865-1.525a138.159 138.159 0 0 1 5.28-8.473l.276-.42a137.232 137.232 0 0 1 7.137-9.62c.099-.135.208-.265.326-.389a136.896 136.896 0 0 1 8.203-9.21l.364-.369a127.375 127.375 0 0 1 9.457-8.729c.128-.127.266-.246.414-.358 3.457-2.9 7.117-5.634 10.962-8.187.175-.103.339-.215.502-.328a111.21 111.21 0 0 1 13.094-7.348l.589-.276c5.29-2.509 10.917-4.511 16.77-5.966l.84-.185c11.966-2.753 23.63-2.435 33.865 1.505 10.235 3.94 18.086 11.052 23.166 20.304l.339.644c2.393 4.597 4.123 9.405 5.155 14.328 0 .184.087.379.113.553a71.25 71.25 0 0 1 1.467 12.904v.533a86.944 86.944 0 0 1-.652 12.096 3.406 3.406 0 0 1-.075.491 95 95 0 0 1-2.095 11.534c0 .164-.075.317-.113.471-.92 3.643-2.057 7.32-3.411 11.032-.04.155-.091.309-.151.46a128.062 128.062 0 0 1-4.49 10.633c-.075.144-.151.287-.213.43-1.405 2.92-2.94 5.82-4.604 8.699Z"/><path fill="#CFCFCF" stroke="#BB6BD9" stroke-linejoin="round" d="m339.584 270.975.84-.185c11.966-2.753 23.63-2.435 33.865 1.505 10.235 3.94 18.086 11.052 23.166 20.304l-57.871-21.624Z"/><path fill="#333" stroke="#BB6BD9" stroke-linejoin="round" d="m403.125 308.144-80.9-30.906.59-.277a89.673 89.673 0 0 1 16.769-5.986l.841-.185 57.407 22.494c2.393 4.597 4.123 9.405 5.155 14.328.062.205.113.358.138.532Z"/><path fill="#7D7D7D" stroke="#BB6BD9" stroke-linejoin="round" d="m404.604 321.581-95.975-36.668c.176-.102.339-.215.502-.327a110.924 110.924 0 0 1 13.094-7.348l.589-.277 80.197 30.63c0 .185.088.379.113.553a71.262 71.262 0 0 1 1.468 12.905c0 .174.012.358.012.532Z"/><path fill="#D4D4D4" stroke="#BB6BD9" stroke-linejoin="round" d="m403.877 334.169-106.612-40.731c.129-.127.267-.246.414-.358 3.457-2.9 7.117-5.634 10.962-8.187.176-.103.339-.215.502-.328l95.461 36.463v.533a86.79 86.79 0 0 1-.652 12.096 3.417 3.417 0 0 1-.075.512Z"/><path fill="#CFCFCF" stroke="#BB6BD9" stroke-linejoin="round" d="m401.595 346.153-114.137-43.617.363-.369a127.574 127.574 0 0 1 9.457-8.729c.129-.127.267-.246.414-.358l106.286 40.598a3.315 3.315 0 0 1-.076.491 94.75 94.75 0 0 1-2.195 11.513c-.025.164-.112.317-.112.471Z"/><path fill="#CFCFCF" stroke="#BB6BD9" stroke-linejoin="round" d="m398.033 357.645-119.154-45.51c.098-.135.207-.265.326-.389a136.884 136.884 0 0 1 8.202-9.21l.364-.369 113.936 43.515c0 .164-.075.317-.112.471-.92 3.643-2.057 7.32-3.412 11.032-.04.155-.09.309-.15.46Z"/><path fill="#E8E8E8" stroke="#BB6BD9" stroke-linejoin="round" d="m393.329 368.708-121.838-46.564.276-.42a136.905 136.905 0 0 1 7.136-9.62c.099-.135.208-.265.327-.388l118.953 45.438c-.04.156-.09.309-.151.461a128.206 128.206 0 0 1-4.49 10.633c-.075.174-.15.317-.213.46Z"/><path fill="#F7F7F7" stroke="#BB6BD9" stroke-linejoin="round" d="M388.726 377.407c-.289.501-.577 1.023-.878 1.515-.075.143-.163.276-.251.429l-122.478-46.789c.076-.153.151-.286.226-.43l.866-1.525a137.674 137.674 0 0 1 5.28-8.473l.276-.42 121.775 46.523c-.075.144-.15.287-.213.43a124.514 124.514 0 0 1-4.603 8.74Z"/><path fill="#fff" stroke="#BB6BD9" stroke-linejoin="round" d="M387.797 378.962c-.075.144-.163.277-.25.43a139.32 139.32 0 0 1-6.46 9.876c-.1.133-.188.256-.276.399L259.701 343.4a2.86 2.86 0 0 0 .188-.43 134.038 134.038 0 0 1 5.18-10.367c.075-.154.15-.287.226-.43l122.502 46.789Z"/><path fill="#fff" stroke="#BB6BD9" stroke-linejoin="round" d="M381.137 389.268c-.1.133-.188.256-.276.399a135.102 135.102 0 0 1-7.525 9.487l-.351.389-117.574-44.917.151-.46a121.371 121.371 0 0 1 4.139-10.766 2.86 2.86 0 0 0 .188-.43l121.248 46.298Z"/><path fill="#fff" stroke="#BB6BD9" stroke-linejoin="round" d="m373.386 399.154-.351.389a131.293 131.293 0 0 1-8.592 9.057 3.979 3.979 0 0 1-.389.378l-111.716-42.675c.024-.162.062-.323.113-.481.778-3.684 1.781-7.43 3.01-11.196l.151-.46 117.774 44.988Z"/><path fill="#CFCFCF" stroke="#BB6BD9" stroke-linejoin="round" d="M364.443 408.6c-.119.133-.249.26-.389.378a127.067 127.067 0 0 1-9.896 8.556l-.451.358-103.125-39.4v-.502a95.934 95.934 0 0 1 1.756-11.687c.025-.162.062-.323.113-.481L364.443 408.6Z"/><path fill="#D4D4D4" stroke="#BB6BD9" stroke-linejoin="round" d="m354.158 417.534-.451.358a119.917 119.917 0 0 1-11.59 7.921l-.501.307-91.047-34.795a3.645 3.645 0 0 1 0-.512 81.096 81.096 0 0 1 0-12.332v-.501l103.589 39.554Z"/><path fill="#7D7D7D" stroke="#BB6BD9" stroke-linejoin="round" d="m342.117 425.813-.501.307a104.551 104.551 0 0 1-14.023 6.99l-.652.266-73.788-28.194a5.178 5.178 0 0 1-.175-.584 65.752 65.752 0 0 1-2.409-13.304 3.631 3.631 0 0 1 0-.511l91.548 35.03Z"/><path fill="#333" stroke="#BB6BD9" stroke-linejoin="round" d="m327.593 433.11-.652.266c-5.992 2.449-12.389 4.173-18.989 5.117l-46.897-17.398c-.201-.235-.364-.481-.539-.726-3.341-4.739-5.821-9.847-7.363-15.167-.075-.194-.125-.389-.175-.583l74.615 28.491Z"/><path fill="#CFCFCF" stroke="#BB6BD9" stroke-linejoin="round" d="M306.923 438.595c-8.917 1.281-18.101.286-26.298-2.849-8.198-3.136-15.01-8.259-19.507-14.671-.201-.235-.364-.481-.54-.727l46.345 18.247Z"/><path fill="#fff" stroke="#BB6BD9" stroke-miterlimit="10" d="M378.186 373.441c25.896-45.127 19.461-92.187-14.371-105.112-33.833-12.926-82.252 13.179-108.148 58.305-25.896 45.127-19.461 92.187 14.371 105.112 33.833 12.926 82.252-13.179 108.148-58.305Z"/><path fill="#BB6BD9" stroke="#BB6BD9" stroke-miterlimit="10" d="M338.355 405.397c-35.997.225-66.914 1.115-87.672 11.902 4.576 6.255 11.306 11.273 19.353 14.429 25.235 9.651 58.586-2.435 84.662-27.928a95.914 95.914 0 0 1-16.343 1.597Z"/><path fill="#fff" stroke="#BB6BD9" stroke-linejoin="round" d="M365.926 368.766c22.518-39.24 17.877-79.797-10.366-90.587-28.243-10.79-69.393 12.274-91.911 51.514-22.517 39.24-17.876 79.797 10.367 90.587 28.243 10.79 69.392-12.274 91.91-51.514Z"/><path fill="#BB6BD9" stroke="#BB6BD9" stroke-miterlimit="10" d="M364.907 296.754a302.72 302.72 0 0 1 8.216-4.094c-4.114-6.58-10.034-11.646-17.56-14.542-28.246-10.756-69.36 12.301-91.937 51.558-4.577 7.941-8.15 16.243-10.661 24.776a133.145 133.145 0 0 0 21.059-1.975c34.567-5.874 47.737-33.342 90.883-55.723Z"/><path fill="#263238" stroke="#BB6BD9" stroke-miterlimit="10" d="M268.568 331.549c21.85-38.06 61.271-60.943 89.391-52.387a43.77 43.77 0 0 0-2.396-1.024c-28.245-10.776-69.36 12.281-91.936 51.538-22.577 39.257-17.873 79.824 10.372 90.58.816.317 1.656.604 2.509.86-26.063-12.137-29.801-51.466-7.94-89.567Z"/><path fill="#263238" stroke="#BB6BD9" stroke-miterlimit="10" d="M325.085 322.656c3.274-5.701 5.983-7.307 8.554-6.325 2.571.983 2.797 3.705-.477 9.405l-1.894 3.316 7.626 2.906 1.443-2.507c6.271-10.827 7.212-18.8 2.508-22.801l3.399-5.936-6.61-2.517-3.399 5.925c-6.76-.225-13.558 5.526-19.704 16.252-13.082 22.801 2.233 29.678-7.187 46.052-3.273 5.7-6.058 7.164-8.629 6.14-2.571-1.023-3.01-3.653.263-9.353l3.6-6.274-7.638-2.916-3.136 5.475c-6.271 10.827-7.275 18.912-2.509 22.944l-3.336 5.823 6.61 2.518 3.336-5.813c6.773.358 13.797-5.445 19.981-16.282 13.119-22.781-2.208-29.607 7.199-46.032Z"/><path fill="#fff" stroke="#BB6BD9" stroke-linejoin="round" d="M323.216 321.939c3.274-5.7 5.983-7.307 8.554-6.324 2.571.982 2.797 3.704-.477 9.405l-1.893 3.264 7.625 2.917 1.443-2.507c6.271-10.838 7.212-18.8 2.508-22.812l3.399-5.925-6.61-2.528-3.399 5.936c-6.76-.225-13.546 5.526-19.704 16.251-13.082 22.801 2.233 29.627-7.187 46.053-3.273 5.7-6.058 7.163-8.629 6.14-2.571-1.023-3.01-3.643.263-9.354l3.6-6.263-7.626-2.917-3.148 5.476c-6.271 10.827-7.275 18.912-2.508 22.944l-3.337 5.813 6.61 2.528 3.336-5.813c6.773.358 13.797-5.445 19.981-16.282 13.107-22.761-2.22-29.587 7.199-46.002Z"/><path fill="#fff" stroke="#BA68C8" stroke-linejoin="round" d="M273.661 351.423V352.989a70.419 70.419 0 0 1-.928 10.07c0 .143 0 .276-.075.409a70.284 70.284 0 0 1-2.446 10.071c0 .129-.05.272-.15.429a72.566 72.566 0 0 1-4.089 10.06l-.213.43a81.56 81.56 0 0 1-6.008 10.06 3.99 3.99 0 0 1-.289.43 88.263 88.263 0 0 1-8.29 10.07c-.126.143-.264.276-.402.409a94.48 94.48 0 0 1-11.388 10.07l-.565.42c-5.049 3.78-10.535 7.152-16.38 10.07l-.866.42c-10.117 4.963-21.182 8.509-32.736 10.489a131.363 131.363 0 0 1-44.45 0c-11.554-1.98-22.619-5.526-32.736-10.489l-.866-.42c-5.845-2.918-11.33-6.29-16.38-10.07l-.565-.42a96.334 96.334 0 0 1-11.376-10.07 6.844 6.844 0 0 1-.401-.409 88.227 88.227 0 0 1-8.29-10.07 4.105 4.105 0 0 1-.29-.43 79.94 79.94 0 0 1-6.007-10.06l-.213-.43a74.199 74.199 0 0 1-4.09-10.06 2.297 2.297 0 0 1-.137-.429 68.848 68.848 0 0 1-2.509-10.071l-.088-.389a70.53 70.53 0 0 1-.915-10.07 2.346 2.346 0 0 1 0-.419v-1.146c0-2.981.184-5.959.552-8.924 0-.144 0-.277.063-.42a69.963 69.963 0 0 1 2.044-10.07c0-.143.063-.287.113-.42a76.077 76.077 0 0 1 3.662-10.07c.076-.133.126-.276.188-.409a80.335 80.335 0 0 1 5.582-10.091c.075-.143.175-.286.263-.43a85.417 85.417 0 0 1 7.651-10.06c.115-.149.241-.292.376-.429a93.693 93.693 0 0 1 10.473-10.07l.502-.42a105.473 105.473 0 0 1 14.8-10.07l.74-.41c7.548-4.188 15.721-7.572 24.32-10.07l1.468-.419c22.281-6.113 46.401-6.113 68.683 0l1.48.419c8.576 2.502 16.724 5.889 24.244 10.081.251.133.502.266.74.409a105.444 105.444 0 0 1 14.801 10.07c.175.133.338.276.501.42a93.878 93.878 0 0 1 10.486 10.07l.376.43a85.076 85.076 0 0 1 7.638 10.06c.102.139.194.282.276.429a78.395 78.395 0 0 1 5.494 10.071l.188.409a76.179 76.179 0 0 1 3.663 10.07c0 .133.087.276.112.42a69.731 69.731 0 0 1 2.057 10.07v.419a72.31 72.31 0 0 1 .602 8.914Z"/><path fill="#fff" stroke="#BA68C8" stroke-linejoin="round" d="M202.42 269.081h-71.631l1.468-.419c22.281-6.113 46.401-6.113 68.683 0l1.48.419Z"/><path fill="#CFCFCF" stroke="#BA68C8" stroke-linejoin="round" d="M227.467 279.561H105.729l.74-.41c7.548-4.188 15.721-7.572 24.32-10.07l1.468-.419h68.657l1.48.419c8.607 2.496 16.785 5.884 24.333 10.081.251.122.527.255.74.399Z"/><path fill="#333" stroke="#BA68C8" stroke-linejoin="round" d="M242.769 290.05H90.427l.502-.419a105.473 105.473 0 0 1 14.8-10.07l.74-.41h120.258c.251.133.502.266.74.41a105.492 105.492 0 0 1 14.8 10.07c.176.133.339.276.502.419Z"/><path fill="#7D7D7D" stroke="#BA68C8" stroke-linejoin="round" d="M253.593 300.55H79.578c.116-.149.241-.292.377-.429a93.702 93.702 0 0 1 10.473-10.071l.501-.419h151.376c.176.133.339.276.502.419a93.875 93.875 0 0 1 10.485 10.071l.301.429Z"/><path fill="#D4D4D4" stroke="#BA68C8" stroke-linejoin="round" d="M261.545 311.04H71.726c.076-.143.176-.286.264-.43a85.417 85.417 0 0 1 7.65-10.06c.116-.149.242-.292.377-.429h173.237l.377.429a85.375 85.375 0 0 1 7.638 10.06c.102.139.194.283.276.43Z"/><path fill="#CFCFCF" stroke="#BA68C8" stroke-linejoin="round" d="M267.227 321.52H65.982c.075-.133.126-.277.188-.41a80.343 80.343 0 0 1 5.556-10.07c.076-.143.176-.286.264-.43h189.392c.102.139.194.283.276.43a78.696 78.696 0 0 1 5.494 10.07l.075.41Z"/><path fill="#CFCFCF" stroke="#BA68C8" stroke-linejoin="round" d="M271.003 332.009H62.207c0-.143.063-.286.113-.419a76.025 76.025 0 0 1 3.663-10.07c.075-.133.125-.277.188-.41h200.868l.188.41a76.127 76.127 0 0 1 3.663 10.07c.037.133.087.276.113.419Z"/><path fill="#E8E8E8" stroke="#BA68C8" stroke-linejoin="round" d="M273.109 342.499H60.099c0-.143 0-.276.063-.419a69.949 69.949 0 0 1 2.044-10.071c0-.143.063-.286.113-.419h208.57c0 .133.088.276.113.419a70.043 70.043 0 0 1 2.057 10.071c.012.143.038.276.05.419Z"/><path fill="#F7F7F7" stroke="#BA68C8" stroke-linejoin="round" d="M273.662 351.423V352.989H59.573a2.357 2.357 0 0 1 0-.42v-1.146c0-2.98.184-5.959.552-8.924 0-.143 0-.276.063-.419H273.06v.419c.384 2.965.585 5.943.602 8.924Z"/><path fill="#fff" stroke="#BA68C8" stroke-linejoin="round" d="M273.661 352.569v.42a70.419 70.419 0 0 1-.928 10.07c0 .143 0 .276-.075.409H60.564l-.126-.388a70.558 70.558 0 0 1-.915-10.071 2.346 2.346 0 0 1 0-.419l214.138-.021Z"/><path fill="#fff" stroke="#BA68C8" stroke-linejoin="round" d="M272.72 363.079c0 .144 0 .277-.075.41a70.304 70.304 0 0 1-2.446 10.07c0 .13-.05.273-.15.43H63.159a2.306 2.306 0 0 1-.137-.43 68.854 68.854 0 0 1-2.509-10.07l-.075-.41H272.72Z"/><path fill="#fff" stroke="#BA68C8" stroke-linejoin="round" d="M270.2 373.538c0 .13-.051.273-.151.43a72.616 72.616 0 0 1-4.089 10.06l-.213.43H67.462l-.213-.43a74.199 74.199 0 0 1-4.089-10.06 2.283 2.283 0 0 1-.138-.43H270.2Z"/><path fill="#CFCFCF" stroke="#BA68C8" stroke-linejoin="round" d="m265.96 384.028-.213.43a81.56 81.56 0 0 1-6.008 10.06 4.132 4.132 0 0 1-.288.43H73.821a4.09 4.09 0 0 1-.288-.43 80 80 0 0 1-6.008-10.06l-.213-.43H265.96Z"/><path fill="#D4D4D4" stroke="#BA68C8" stroke-linejoin="round" d="M259.739 394.518a4.132 4.132 0 0 1-.288.43 88.167 88.167 0 0 1-8.291 10.07c-.125.143-.263.276-.401.409H82.451c-.138-.133-.276-.266-.402-.409a88.226 88.226 0 0 1-8.29-10.07 4.106 4.106 0 0 1-.289-.43H259.74Z"/><path fill="#7D7D7D" stroke="#BA68C8" stroke-linejoin="round" d="M251.16 405.038c-.125.144-.263.277-.401.41a94.587 94.587 0 0 1-11.389 10.07l-.564.419H94.391l-.564-.419a96.423 96.423 0 0 1-11.376-10.07c-.138-.133-.276-.266-.402-.41H251.16Z"/><path fill="#333" stroke="#BA68C8" stroke-linejoin="round" d="m239.37 415.497-.565.42c-5.049 3.78-10.535 7.152-16.38 10.07l-.866.42H111.637l-.866-.42c-5.845-2.918-11.33-6.29-16.38-10.07l-.565-.42H239.37Z"/><path fill="#CFCFCF" stroke="#BA68C8" stroke-linejoin="round" d="m222.425 425.987-.865.42c-10.118 4.963-21.183 8.509-32.736 10.49h-44.451c-11.553-1.981-22.618-5.527-32.736-10.49l-.865-.42h111.653Z"/><path fill="#fff" stroke="#BA68C8" stroke-linejoin="round" d="M158.132 438.79c59.129 0 107.063-39.111 107.063-87.357 0-48.245-47.934-87.356-107.063-87.356-59.13 0-107.063 39.111-107.063 87.356 0 48.246 47.934 87.357 107.063 87.357Z"/><path fill="#fff" stroke="#BA68C8" stroke-linejoin="round" d="M158.132 421.658c47.533 0 86.067-31.441 86.067-70.225 0-38.784-38.534-70.225-86.067-70.225-47.534 0-86.067 31.441-86.067 70.225 0 38.784 38.533 70.225 86.067 70.225Z"/><path fill="#BA68C8" d="M147.383 355.21c-15.941 26.024-43.899 33.516-60.505 35.624 6.454 7.805 14.765 14.472 24.44 19.604 9.674 5.132 20.515 8.624 31.877 10.268a105.076 105.076 0 0 0 34.262-.696c11.248-2.103 21.862-6.031 31.212-11.549 9.35-5.519 17.244-12.514 23.214-20.572 5.97-8.058 9.892-17.013 11.535-26.333 1.642-9.319.971-18.813-1.974-27.917-2.944-9.104-8.103-17.631-15.168-25.075-33.075 2.517-61.998 19.076-78.893 46.646Z"/><path fill="#BA68C8" stroke="#BA68C8" stroke-miterlimit="10" d="M72.052 351.433c.005 18.288 8.755 35.853 24.388 48.959 15.633 13.105 36.916 20.717 59.321 21.215h1.38c-22.181-.757-43.144-8.48-58.51-21.553-15.367-13.073-23.946-30.486-23.946-48.6s8.58-35.527 23.945-48.6c15.367-13.074 36.33-20.796 58.511-21.554l-1.38-.092c-22.416.499-43.708 8.118-59.343 21.234-15.635 13.116-24.377 30.694-24.366 48.991Z"/><path fill="#BA68C8" stroke="#fff" stroke-miterlimit="10" d="M153.729 327.507c0-6.294 3.086-8.689 8.492-8.689 5.405 0 8.478 2.395 8.478 8.689v3.653h16.055v-2.773c0-11.964-6.171-19.516-18.212-21.491v-6.55h-13.884v6.55c-11.891 2.138-17.899 9.691-17.899 21.491 0 25.185 33.175 26.065 33.175 44.2 0 6.294-3.399 8.555-8.779 8.555-5.381 0-8.78-2.261-8.78-8.555v-6.929h-16.08v6.038c0 11.964 6.171 19.649 18.363 21.666v6.416h13.884v-6.416c12.041-2.047 18.362-9.702 18.362-21.666 0-25.175-33.175-26.014-33.175-44.189Z"/><path fill="#fff" stroke="#BA68C8" stroke-linejoin="round" d="M150.356 327.507c0-6.294 3.098-8.689 8.491-8.689s8.491 2.395 8.491 8.689v3.653h16.017v-2.773c0-11.964-6.171-19.516-18.199-21.491v-6.55h-13.872v6.55c-11.878 2.138-17.898 9.691-17.898 21.491 0 25.185 33.175 26.065 33.175 44.2 0 6.294-3.387 8.555-8.78 8.555-5.394 0-8.78-2.261-8.78-8.555v-6.929h-16.054v6.038c0 11.964 6.17 19.649 18.362 21.666v6.416h13.897v-6.416c12.028-2.047 18.362-9.702 18.362-21.666-.025-25.175-33.212-26.014-33.212-44.189Z"/><path fill="#263238" stroke="#263238" stroke-linecap="round" stroke-linejoin="round" d="m541.858 112.155-5.381 3.07c-.948-1.052-2.32-1.798-3.874-2.109a8.242 8.242 0 0 0-4.63.41c-5.368 1.986-17.559 12.179-21.159 21.492-3.6 9.312 8.328 19.966 6.07 23.926-2.257 3.961-8.679 5.117-8.152 11.759.527 6.642 29.5 15.566 43.372 10.326s.527-17.398 3.65-21.378c3.123-3.981 12.141-2.825 12.141-14.574 0-11.748-2.747-17.704-7.977-24.919-4.515-6.161-9.031-9.415-14.06-8.003Z"/><path fill="#fff" stroke="#263238" stroke-linecap="round" stroke-linejoin="round" d="M559.718 420.154a76.928 76.928 0 0 1-6.046 10.234c-2.508 3.152-9.344 3.459-6.773 6.028 2.572 2.568 9.094 3.418 13.797.859 4.704-2.558 5.306-7.225 8.955-8.995 3.65-1.771 4.014-4.35 2.735-7.42-1.28-3.07-3.412-3.899-3.412-3.899s-2.069 3.674-9.256 3.193Z"/><path fill="#263238" stroke="#263238" stroke-linecap="round" stroke-linejoin="round" d="M497.971 232.915s-5.017 19.27-3.223 34.161c1.793 14.89 4.678 28.327 6.447 33.577 1.768 5.25 15.051 54.905 16.104 55.488 1.054.583 25.123 27.406 29.789 37.64 4.665 10.234 13.583 27.417 13.583 27.417s4.879 1.914 8.103-.42c3.223-2.333 2.044-2.978 2.044-2.978s-10.561-38.305-16.305-52.909c-5.745-14.604-14.675-30.957-14.675-30.957s17.171-54.312 13.232-75.639c-3.938-21.327-8.942-23.947-8.942-23.947s-29.337 8.791-46.157-1.433Z"/><path fill="#263238" d="M546.398 237.264c10.848 12.02 17.712 26.119 19.93 40.936 3.224 23.947-13.96 39.718-17.559 54.905-3.6 15.187 1.467 20.529-3.901 36.299-5.368 15.771-6.66 19.148-10.235 27.908-3.574 8.76-8.604 20.785-8.604 20.785s-2.132 1.719-6.785 1.719c-4.654 0-5.231-.082-5.231-.082s7.915-45.745 8.266-60.38c.351-14.634 2.508-30.374 2.508-30.374s-2.508-54.024 2.86-64.248c5.368-10.224 8.956-13.14 8.956-13.14"/><path stroke="#263238" stroke-linecap="round" stroke-linejoin="round" d="M546.398 237.264c10.848 12.02 17.712 26.119 19.93 40.936 3.224 23.947-13.96 39.718-17.559 54.905-3.6 15.187 1.467 20.529-3.901 36.299-5.368 15.771-6.66 19.148-10.235 27.908-3.574 8.76-8.604 20.785-8.604 20.785s-2.132 1.719-6.785 1.719c-4.654 0-5.231-.082-5.231-.082s7.915-45.745 8.266-60.38c.351-14.634 2.508-30.374 2.508-30.374s-2.508-54.024 2.86-64.248c5.368-10.224 8.956-13.14 8.956-13.14"/><path stroke="#fff" stroke-linecap="round" stroke-linejoin="round" d="M522.278 349.151c0-8.586.126-20.897.565-30.108.727-15.678 2.207-53.062 12.542-63.317M522.304 359.365v-4.268"/><path stroke="#fff" stroke-linecap="round" stroke-linejoin="round" d="M505.835 258.131s7.714 16.323 20.206 20.284"/><path fill="#BB6BD9" d="M501.195 168.37c-2.585-.271-5.208.153-7.471 1.208-2.263 1.054-4.043 2.681-5.072 4.635-3.925 7.01-20.582 34.581-20.582 38.091 0 3.51 4.678 13.058 12.405 7.757 4.527-3.07 17.559-25.4 17.559-25.4"/><path stroke="#263238" stroke-linecap="round" stroke-linejoin="round" d="M501.195 168.37c-2.585-.271-5.208.153-7.471 1.208-2.263 1.054-4.043 2.681-5.072 4.635-3.925 7.01-20.582 34.581-20.582 38.091 0 3.51 4.678 13.058 12.405 7.757 4.527-3.07 17.559-25.4 17.559-25.4"/><path fill="#BB6BD9" stroke="#263238" stroke-linecap="round" stroke-linejoin="round" d="M560.596 176.291c-3.286-8.351-23.417-8.781-24.985-9.057 0 0-.69.849-.69-1.024 0-1.872 1.255-8.78 1.255-8.78s-13.709 0-15.967-3.961c0 0-.351 9.62-1.906 13.304 0 0-2.158 1.28-7.363 1.28s-13.797-1.71-16.405 4.093c-.162.4-.296.806-.402 1.218-1.254 3.848-5.155 15.873-5.606 21.071-.301 3.48 2.107 10.234 4.302 15.617.15 3.848.389 7.113.652 9.211 1.254 9.487.514 21.737 4.327 23.722 3.813 1.985 32.498 5.342 41.528 2.231 9.031-3.111 8.467-11.8 8.467-15.903 0-4.104 16.092-44.671 12.793-53.022Z"/><path stroke="#263238" stroke-linecap="round" stroke-linejoin="round" d="M511.015 196.022s2.208 7.839 14.035 12.065"/><path fill="#fff" stroke="#263238" stroke-linecap="round" stroke-linejoin="round" d="M547.527 168.748a100.8 100.8 0 0 0-11.915-1.514s-.69.849-.69-1.024c0-1.872 1.254-8.78 1.254-8.78s-13.709 0-15.967-3.961c0 0-.351 9.62-1.906 13.304 0 0-5.017.809-9.808 1.259.827 4.022 3.938 12.465 15.54 13.478 10.097.921 18.776-7.184 23.492-12.762ZM546.799 147.308s2.797-1.596 2.509 1.147c-.289 2.742-1.957 5.25-3.913 5.7-1.092.27-2.222.424-3.362.46l4.766-7.307ZM518.24 142.028s-2.797-2.518-3.073 1.596c-.276 4.114 2.509 5.25 2.509 5.25l.564-6.846Z"/><path fill="#fff" stroke="#263238" stroke-linecap="round" stroke-linejoin="round" d="M533.291 127.7s-4.089 3.275-14.324 4.094c0 0-4.164 12.598-.514 21.092 3.65 8.494 10.034 9.773 15.051 8.637 8.567-1.924 15.277-16.139 17.183-21.491.025.01-14.461-4.4-17.396-12.332Z"/><path fill="#263238" d="M527.308 140.534c-.301 1.023-1.254 1.791-2.031 1.637-.778-.153-1.255-1.136-.941-2.2.313-1.065 1.254-1.781 2.032-1.627.777.153 1.229 1.136.94 2.19ZM538.421 143.051c-.301 1.024-1.254 1.791-2.019 1.638-.765-.154-1.254-1.136-.941-2.19.314-1.055 1.254-1.791 2.019-1.638.766.154 1.242 1.095.941 2.19Z"/><path stroke="#263238" stroke-linecap="round" stroke-linejoin="round" d="M528.437 147.001c.394.36.891.634 1.447.799a4.352 4.352 0 0 0 1.739.143M524.085 148.659s2.897 4.964 11.602 2.835M524.085 135.887s2.32-1.187 5.506.707M537.142 137.535c1.309.109 2.577.439 3.723.967s2.146 1.244 2.937 2.103"/><path fill="#fff" stroke="#263238" stroke-linecap="round" stroke-linejoin="round" d="M514.051 418.148s-4.29 8.361-12.543 12.69c-3.938 2.047-10.373 2.907-8.328 5.516 2.044 2.61 14.637 2.61 20.582.614 5.945-1.995 8.429-2.395 10.31-5.311 1.882-2.917 1.957-13.581 1.957-13.581a23.635 23.635 0 0 1-11.978.072ZM503.954 211.526s-8.98-8.392-9.557-9.21c-.577-.819-15.039-4.555-15.039-4.555a2.848 2.848 0 0 0-.075 2.272c.565.799 9.808 2.794 9.808 2.794l.828 1.024-12.668-1.443s-2.257.317-1.655 1.525c.602 1.207 14.097 2.773 14.097 2.773l-13.796.512c.177.551.552 1.046 1.078 1.422a3.902 3.902 0 0 0 1.869.686c2.27.092 7.802-.195 7.802-.195s-6.497.747-5.13 2.119c1.367 1.371 8.315-.225 8.315-.225l5.507 2.804 5.556 3.213 3.06-5.516Z"/><path fill="#BB6BD9" d="m549.672 185.685-9.269 31.316s-24.483-2.343-29.776-3.602a42.084 42.084 0 0 1-5.958-1.617l-3.825 5.26s17.058 8.423 30.741 12.199c13.684 3.776 18.526 6.836 22.05 1.975 3.525-4.861 9.708-34.376 11.477-44.272 1.768-9.896-.226-13.14-4.19-14.399a67.074 67.074 0 0 0-9.043-1.985"/><path stroke="#263238" stroke-linecap="round" stroke-linejoin="round" d="m549.672 185.685-9.269 31.316s-24.483-2.343-29.776-3.602a42.084 42.084 0 0 1-5.958-1.617l-3.825 5.26s17.058 8.423 30.741 12.199c13.684 3.776 18.526 6.836 22.05 1.975 3.525-4.861 9.708-34.376 11.477-44.272 1.768-9.896-.226-13.14-4.19-14.399a67.074 67.074 0 0 0-9.043-1.985"/><path fill="#BB6BD9" d="m474.341 208.118 51.951 5.813-1.781 5.465s-21.222 4.093-38.744 4.759c-22.451.808-19.491-11.534-15.552-17.081"/><path stroke="#263238" stroke-linecap="round" stroke-linejoin="round" d="m474.341 208.118 51.951 5.813-1.781 5.465s-21.222 4.093-38.744 4.759c-22.451.808-19.491-11.534-15.552-17.081"/><path fill="#fff" stroke="#263238" stroke-linecap="round" stroke-linejoin="round" d="M526.242 213.931s13.433-2.528 14.487-2.876c1.053-.348 15.264 3.94 15.264 3.94s-.615 1.484-1.656 1.822c-1.041.338-9.833-2.732-9.833-2.732l-1.405.358 11.088 5.291s1.53 1.391.138 2.046c-1.393.655-13.195-4.902-13.195-4.902l10.523 7.359a4.03 4.03 0 0 1-1.922.579 4.168 4.168 0 0 1-1.991-.395c-1.856-1.075-5.995-4.094-5.995-4.094s4.552 3.858 2.433 4.258c-2.12.399-6.372-4.36-6.372-4.36l-6.459-.563-6.836-.266 1.731-5.465Z"/><path stroke="#263238" stroke-linejoin="round" d="M20.301 438.79h569.431"/></svg>