<svg width="552" height="526" viewBox="0 0 552 526" fill="none" xmlns="http://www.w3.org/2000/svg">
<path d="M550.898 227.316H328.762C328.568 227.316 328.381 227.239 328.244 227.102C328.107 226.964 328.029 226.778 328.029 226.584V73.4594C328.029 73.2651 328.107 73.0789 328.244 72.9415C328.381 72.8042 328.568 72.7271 328.762 72.7271H550.898C551.092 72.7271 551.279 72.8042 551.416 72.9415C551.553 73.0789 551.631 73.2651 551.631 73.4594V226.584C551.631 226.778 551.553 226.964 551.416 227.102C551.279 227.239 551.092 227.316 550.898 227.316ZM329.494 225.851H550.166V74.1917H329.494V225.851Z" fill="#263238"/>
<path d="M529.252 95.5311C528.128 95.5311 527.03 95.1978 526.095 94.5734C525.161 93.949 524.432 93.0615 524.002 92.0231C523.572 90.9847 523.46 89.8421 523.679 88.7398C523.898 87.6375 524.439 86.6249 525.234 85.8302C526.029 85.0355 527.041 84.4942 528.144 84.275C529.246 84.0557 530.389 84.1682 531.427 84.5983C532.465 85.0284 533.353 85.7568 533.977 86.6913C534.602 87.6258 534.935 88.7245 534.935 89.8484C534.935 91.3556 534.336 92.801 533.27 93.8667C532.205 94.9324 530.759 95.5311 529.252 95.5311ZM529.252 85.6304C528.418 85.6304 527.602 85.8778 526.909 86.3412C526.215 86.8047 525.674 87.4635 525.355 88.2343C525.036 89.005 524.952 89.8531 525.115 90.6713C525.278 91.4896 525.68 92.2412 526.27 92.8311C526.859 93.421 527.611 93.8227 528.429 93.9855C529.248 94.1482 530.096 94.0647 530.866 93.7454C531.637 93.4262 532.296 92.8855 532.759 92.1919C533.223 91.4982 533.47 90.6827 533.47 89.8484C533.47 88.7297 533.026 87.6569 532.235 86.8658C531.444 86.0748 530.371 85.6304 529.252 85.6304Z" fill="#263238"/>
<path d="M516.451 89.8472C516.451 90.8263 516.161 91.7833 515.617 92.5974C515.073 93.4115 514.3 94.046 513.395 94.4207C512.491 94.7954 511.496 94.8934 510.535 94.7024C509.575 94.5114 508.693 94.0399 508.001 93.3476C507.308 92.6553 506.837 91.7732 506.646 90.8129C506.455 89.8527 506.553 88.8573 506.927 87.9527C507.302 87.0482 507.937 86.275 508.751 85.7311C509.565 85.1871 510.522 84.8968 511.501 84.8968C512.814 84.8968 514.073 85.4183 515.001 86.3467C515.93 87.2751 516.451 88.5342 516.451 89.8472Z" fill="#263238"/>
<path d="M498.701 89.8472C498.701 90.8263 498.41 91.7833 497.866 92.5974C497.322 93.4115 496.549 94.046 495.645 94.4207C494.74 94.7954 493.745 94.8934 492.784 94.7024C491.824 94.5114 490.942 94.0399 490.25 93.3476C489.557 92.6553 489.086 91.7732 488.895 90.8129C488.704 89.8527 488.802 88.8573 489.177 87.9527C489.551 87.0482 490.186 86.275 491 85.7311C491.814 85.1871 492.771 84.8968 493.75 84.8968C495.063 84.8968 496.322 85.4183 497.251 86.3467C498.179 87.2751 498.701 88.5342 498.701 89.8472Z" fill="#263238"/>
<path d="M536.46 107.233H344.333V214.002H536.46V107.233Z" fill="#263238"/>
<path d="M450.53 194.494H450.31C440.133 194.272 430.449 190.066 423.34 182.78C416.23 175.494 412.263 165.71 412.289 155.53C412.316 145.351 416.335 135.588 423.483 128.34C430.631 121.092 440.337 116.937 450.515 116.768H450.749C455.854 116.782 460.906 117.802 465.616 119.769C470.327 121.735 474.604 124.611 478.203 128.23C481.802 131.85 484.653 136.143 486.593 140.865C488.533 145.586 489.524 150.644 489.51 155.748C489.496 160.853 488.476 165.904 486.509 170.615C484.542 175.325 481.667 179.602 478.047 183.202C474.428 186.801 470.135 189.652 465.413 191.592C460.692 193.532 455.634 194.523 450.53 194.509V194.494ZM450.53 118.218C440.737 118.383 431.4 122.382 424.524 129.356C417.648 136.33 413.781 145.722 413.754 155.516C413.727 165.31 417.543 174.723 424.38 181.735C431.218 188.746 440.533 192.796 450.325 193.015H450.544C455.456 193.029 460.323 192.074 464.867 190.207C469.41 188.34 473.541 185.596 477.024 182.132C480.507 178.668 483.274 174.552 485.166 170.018C487.058 165.485 488.039 160.624 488.053 155.712C488.066 150.799 487.112 145.933 485.245 141.389C483.377 136.846 480.633 132.715 477.169 129.232C473.705 125.749 469.589 122.982 465.056 121.09C460.523 119.197 455.662 118.217 450.749 118.203L450.53 118.218Z" fill="white"/>
<path d="M442.548 138.473L442.358 174.092L468.472 156.297L442.548 138.473Z" fill="white"/>
<path d="M211.478 83.6974H31.0679C30.8737 83.6974 30.6874 83.6202 30.5501 83.4829C30.4127 83.3456 30.3356 83.1593 30.3356 82.9651V55.6502C30.3356 55.456 30.4127 55.2697 30.5501 55.1324C30.6874 54.9951 30.8737 54.9179 31.0679 54.9179H211.478C211.671 54.9217 211.855 55 211.992 55.1366C212.128 55.2731 212.206 55.4572 212.21 55.6502V82.9797C212.206 83.1714 212.127 83.3539 211.991 83.4881C211.854 83.6223 211.67 83.6974 211.478 83.6974ZM31.8002 82.2328H210.746V56.3825H31.8002V82.2328Z" fill="#263238"/>
<path d="M52.8315 69.3147C52.8344 70.353 52.529 71.3687 51.954 72.2332C51.3789 73.0977 50.5602 73.772 49.6015 74.1707C48.6428 74.5694 47.5874 74.6744 46.5689 74.4726C45.5505 74.2707 44.6149 73.7711 43.8807 73.0369C43.1465 72.3027 42.6469 71.3671 42.445 70.3487C42.2432 69.3302 42.3482 68.2748 42.7469 67.3161C43.1456 66.3574 43.8199 65.5387 44.6844 64.9636C45.5489 64.3886 46.5646 64.0832 47.6029 64.0861C48.9896 64.0861 50.3195 64.637 51.3001 65.6175C52.2806 66.5981 52.8315 67.928 52.8315 69.3147Z" fill="#263238"/>
<path d="M75.9572 69.3147C75.9572 70.3482 75.6509 71.3585 75.077 72.2181C74.5031 73.0776 73.6874 73.7478 72.7328 74.1439C71.7782 74.5401 70.7277 74.6445 69.7138 74.4439C68.7 74.2434 67.7683 73.7468 67.0365 73.0171C66.3047 72.2873 65.8055 71.357 65.6021 70.3437C65.3987 69.3304 65.5002 68.2796 65.8937 67.3239C66.2872 66.3683 66.9551 65.5507 67.813 64.9744C68.6709 64.3981 69.6804 64.089 70.7139 64.0861C71.4017 64.0842 72.0832 64.218 72.7193 64.4799C73.3553 64.7418 73.9335 65.1266 74.4206 65.6123C74.9076 66.098 75.2941 66.6751 75.5578 67.3104C75.8214 67.9457 75.9572 68.6268 75.9572 69.3147Z" fill="#263238"/>
<path d="M99.0982 69.3147C99.1011 70.353 98.7957 71.3687 98.2207 72.2332C97.6457 73.0977 96.8269 73.772 95.8683 74.1707C94.9096 74.5694 93.8541 74.6744 92.8357 74.4726C91.8172 74.2707 90.8816 73.7711 90.1474 73.0369C89.4133 72.3027 88.9136 71.3671 88.7117 70.3487C88.5099 69.3302 88.615 68.2748 89.0136 67.3161C89.4123 66.3574 90.0866 65.5387 90.9511 64.9636C91.8156 64.3886 92.8313 64.0832 93.8696 64.0861C95.2563 64.0861 96.5863 64.637 97.5668 65.6175C98.5474 66.5981 99.0982 67.928 99.0982 69.3147Z" fill="#263238"/>
<path d="M217.789 49.8795H205.56C205.365 49.8795 205.179 49.8024 205.042 49.665C204.904 49.5277 204.827 49.3414 204.827 49.1472C204.827 48.953 204.904 48.7667 205.042 48.6294C205.179 48.4921 205.365 48.4149 205.56 48.4149H217.789C217.983 48.4149 218.17 48.4921 218.307 48.6294C218.444 48.7667 218.521 48.953 218.521 49.1472C218.521 49.3414 218.444 49.5277 218.307 49.665C218.17 49.8024 217.983 49.8795 217.789 49.8795Z" fill="#263238"/>
<path d="M61.5892 93.7441H14.3997C14.2054 93.7441 14.0192 93.667 13.8818 93.5296C13.7445 93.3923 13.6674 93.2061 13.6674 93.0118C13.6674 92.8176 13.7445 92.6313 13.8818 92.494C14.0192 92.3567 14.2054 92.2795 14.3997 92.2795H61.5892C61.7834 92.2795 61.9697 92.3567 62.107 92.494C62.2444 92.6313 62.3215 92.8176 62.3215 93.0118C62.3215 93.2061 62.2444 93.3923 62.107 93.5296C61.9697 93.667 61.7834 93.7441 61.5892 93.7441Z" fill="#263238"/>
<path d="M376.084 497.169C374.502 469.005 373.418 449.497 373.418 449.497C272.741 473.882 218.258 434.733 218.258 434.733C218.258 434.733 213.864 462.458 208.27 497.169H376.084Z" fill="#263238"/>
<path d="M376.085 497.902H208.271C208.164 497.902 208.059 497.878 207.963 497.833C207.866 497.787 207.781 497.721 207.714 497.638C207.648 497.557 207.599 497.463 207.571 497.362C207.543 497.262 207.537 497.156 207.553 497.052C213.133 462.341 217.541 434.616 217.541 434.616C217.563 434.494 217.614 434.38 217.691 434.283C217.768 434.185 217.867 434.109 217.981 434.06C218.094 434.01 218.219 433.991 218.342 434.004C218.465 434.017 218.583 434.061 218.684 434.133C219.24 434.528 274.09 472.799 373.244 448.779C373.346 448.753 373.453 448.75 373.557 448.77C373.661 448.791 373.759 448.834 373.844 448.896C373.933 448.96 374.005 449.043 374.056 449.14C374.107 449.236 374.135 449.344 374.137 449.453C374.137 449.453 375.221 468.947 376.817 497.111C376.821 497.21 376.805 497.309 376.77 497.402C376.735 497.496 376.682 497.581 376.614 497.653C376.546 497.725 376.464 497.783 376.373 497.823C376.282 497.864 376.184 497.885 376.085 497.887V497.902ZM209.12 496.437H375.353C373.991 472.154 372.995 454.462 372.775 450.419C280.666 472.388 226.637 440.958 218.845 435.978C217.937 441.441 213.997 466.208 209.135 496.437H209.12Z" fill="#263238"/>
<g opacity="0.6">
<path d="M376.083 497.17C374.502 469.005 373.418 449.497 373.418 449.497C272.741 473.883 218.258 434.734 218.258 434.734C218.258 434.734 213.864 462.459 208.269 497.17H376.083Z" fill="white"/>
<path d="M376.085 497.902H208.271C208.164 497.902 208.059 497.878 207.963 497.833C207.866 497.787 207.781 497.721 207.714 497.638C207.648 497.557 207.599 497.463 207.571 497.362C207.543 497.262 207.537 497.156 207.553 497.052C213.133 462.341 217.541 434.616 217.541 434.616C217.563 434.494 217.614 434.38 217.691 434.283C217.768 434.185 217.867 434.109 217.981 434.06C218.094 434.01 218.219 433.991 218.342 434.004C218.465 434.017 218.583 434.061 218.684 434.133C219.24 434.528 274.09 472.799 373.244 448.779C373.346 448.753 373.453 448.75 373.557 448.77C373.661 448.791 373.759 448.834 373.844 448.896C373.933 448.96 374.005 449.043 374.056 449.14C374.107 449.236 374.135 449.344 374.137 449.453C374.137 449.453 375.221 468.947 376.817 497.111C376.821 497.21 376.805 497.309 376.77 497.402C376.735 497.496 376.682 497.581 376.614 497.653C376.546 497.725 376.464 497.783 376.373 497.823C376.282 497.864 376.184 497.885 376.085 497.887V497.902ZM209.12 496.437H375.353C373.991 472.154 372.995 454.462 372.775 450.419C280.666 472.388 226.637 440.958 218.845 435.978C217.937 441.441 213.997 466.208 209.135 496.437H209.12Z" fill="#263238"/>
</g>
<path d="M87.7176 221.691C87.5712 226.246 84.6273 230.347 84.5248 234.873C84.4369 239.12 86.8389 242.986 87.6591 247.146C88.5378 251.628 87.6591 256.226 88.2303 260.723C88.6329 263.623 89.4261 266.456 90.5883 269.144C91.4332 271.264 92.8286 273.119 94.6306 274.519C97.5598 276.687 101.734 276.599 105.264 276.599C108.914 276.806 112.526 275.774 115.516 273.67C117.754 271.646 119.567 269.196 120.847 266.464C122.238 264.352 123.098 261.935 123.351 259.419C123.331 257.994 123.033 256.586 122.473 255.274C119.543 248.083 112.22 242.957 110.99 235.312C110.463 232.046 111.137 228.721 111.43 225.44C111.723 222.16 111.532 218.571 109.54 215.921C106.245 211.527 98.5264 210.604 93.4296 210.619C85.9894 210.633 87.908 216.257 87.7176 221.691Z" fill="white"/>
<path d="M104.399 277.346C100.972 277.346 97.1789 277.244 94.279 275.135C92.3669 273.657 90.8852 271.695 89.9877 269.452C88.7992 266.704 87.9911 263.807 87.5858 260.84C87.3502 258.735 87.2817 256.614 87.3807 254.498C87.5084 252.095 87.3857 249.685 87.0146 247.307C86.6428 245.711 86.1532 244.144 85.55 242.62C84.4232 240.346 83.8296 237.845 83.8144 235.308C83.7992 232.77 84.3627 230.262 85.4621 227.974C86.3063 225.964 86.8302 223.834 87.0146 221.662C87.0146 220.666 87.0146 219.655 87.0146 218.733C86.9121 215.921 86.8095 213.27 88.4792 211.571C89.1629 210.968 89.9621 210.51 90.8282 210.225C91.6943 209.941 92.6093 209.836 93.5174 209.916C98.2335 209.916 106.567 210.604 110.243 215.511C112.03 217.883 112.674 221.061 112.279 225.528C112.206 226.349 112.118 227.169 112.015 227.974C111.618 230.371 111.554 232.81 111.825 235.224C112.499 239.398 115.076 242.782 117.815 246.355C120.015 248.985 121.848 251.902 123.264 255.026C123.856 256.416 124.175 257.908 124.201 259.419C123.941 262.034 123.051 264.547 121.609 266.742C120.268 269.557 118.393 272.084 116.087 274.183C112.977 276.409 109.199 277.505 105.381 277.288H104.399V277.346ZM88.5231 221.691C88.333 224.012 87.7846 226.29 86.8974 228.443C85.8492 230.568 85.3114 232.909 85.3267 235.278C85.3419 237.648 85.9098 239.982 86.9853 242.093C87.5944 243.69 88.084 245.33 88.4499 247C88.8508 249.478 88.9834 251.992 88.8453 254.498C88.7477 256.541 88.8114 258.588 89.0357 260.62C89.4277 263.45 90.2012 266.214 91.3352 268.837C92.1236 270.843 93.4392 272.599 95.1431 273.919C97.8087 275.852 101.587 275.852 104.912 275.852H105.337C108.826 276.066 112.284 275.079 115.135 273.055C117.29 271.08 119.037 268.702 120.276 266.054C121.604 264.048 122.432 261.753 122.692 259.361C122.668 258.03 122.384 256.717 121.858 255.494C120.496 252.493 118.726 249.693 116.6 247.175C113.89 243.602 111.078 239.852 110.331 235.458C110.042 232.913 110.106 230.341 110.521 227.813C110.609 227.008 110.712 226.202 110.77 225.397C111.137 221.31 110.58 218.454 109.028 216.389C105.615 211.834 97.0032 211.424 93.4735 211.38C92.7631 211.309 92.0457 211.378 91.3621 211.584C90.6786 211.791 90.0423 212.129 89.4898 212.581C88.3034 213.826 88.3767 216.067 88.4792 218.674C88.4792 219.685 88.5671 220.725 88.4792 221.764L88.5231 221.691Z" fill="#263238"/>
<path d="M97.2241 275.794L102.116 314.621C102.116 314.621 129.768 307.825 137.925 296.914L122.24 262.408" fill="white"/>
<path d="M102.115 315.353C101.963 315.352 101.815 315.306 101.69 315.221C101.606 315.162 101.535 315.086 101.482 314.997C101.429 314.909 101.395 314.811 101.383 314.708L96.4908 275.882C96.4659 275.689 96.5182 275.495 96.6362 275.341C96.7543 275.188 96.9285 275.087 97.1206 275.061C97.2172 275.047 97.3157 275.053 97.4101 275.078C97.5044 275.103 97.5927 275.147 97.6695 275.207C97.7463 275.267 97.8099 275.343 97.8566 275.428C97.9032 275.514 97.9319 275.609 97.9408 275.706L102.73 313.698C107.256 312.497 129.649 306.17 137.075 296.811L121.565 262.715C121.489 262.535 121.484 262.334 121.552 262.151C121.621 261.969 121.756 261.819 121.931 261.733C122.108 261.654 122.309 261.648 122.49 261.717C122.671 261.786 122.818 261.923 122.898 262.1L138.598 296.606C138.649 296.727 138.668 296.86 138.653 296.991C138.638 297.122 138.588 297.246 138.51 297.353C130.294 308.337 103.36 315.045 102.276 315.323L102.115 315.353Z" fill="#263238"/>
<path d="M147.65 299.595L156.438 319.22L246.862 266.055L264.042 243.134L275.876 271.914L251.71 328.506C232.85 341.705 213.016 353.456 192.379 363.657C182.542 368.668 172.446 373.156 162.135 377.102C152.278 380.792 142.011 383.312 131.847 386.021C131.157 386.277 130.398 386.277 129.709 386.021C129.254 385.787 129.064 385.23 128.654 384.893C121.214 378.903 102.555 325.504 100.636 308.5L147.65 299.595Z" fill="#263238"/>
<path d="M390.892 221.869L432.721 281.347C437.762 288.515 440.663 296.969 441.086 305.723C441.509 314.477 439.435 323.17 435.108 330.792C418.997 359.205 393.235 402.557 379.805 415.094C379.805 415.094 386.073 427.924 385.121 432.67C384.169 437.415 375.323 438.381 375.323 438.381L388.929 461.727C388.929 461.727 315.128 526.975 211.316 442.219L232.919 366.499L221.481 358.326L267.367 205.055L314.527 199.988L328.866 237.95L344.346 219.643L359.886 237.95L390.892 221.869Z" fill="#263238"/>
<path d="M387.757 310.271C387.604 310.272 387.455 310.224 387.331 310.134C387.207 310.045 387.115 309.918 387.068 309.773C387.007 309.588 387.02 309.387 387.105 309.212C387.19 309.037 387.339 308.902 387.522 308.835C400.235 304.441 412.054 302.523 428.312 301.996C428.506 301.995 428.693 302.069 428.835 302.203C428.977 302.336 429.062 302.519 429.073 302.713C429.075 302.809 429.058 302.905 429.023 302.995C428.988 303.084 428.936 303.166 428.869 303.235C428.802 303.305 428.723 303.36 428.635 303.399C428.546 303.437 428.452 303.458 428.355 303.46C412.245 303.987 400.528 305.95 387.991 310.227C387.917 310.257 387.837 310.272 387.757 310.271Z" fill="white"/>
<path d="M349.283 451.59C349.147 451.587 349.014 451.547 348.899 451.473C348.784 451.4 348.692 451.296 348.631 451.174C348.571 451.052 348.545 450.916 348.557 450.78C348.568 450.644 348.617 450.514 348.697 450.404C356.034 440.775 365.736 433.207 376.861 428.435C377.038 428.368 377.235 428.372 377.409 428.446C377.583 428.521 377.721 428.66 377.795 428.834C377.869 429.008 377.873 429.204 377.805 429.381C377.737 429.558 377.604 429.702 377.433 429.782C366.546 434.435 357.05 441.827 349.869 451.239C349.806 451.34 349.72 451.424 349.618 451.485C349.516 451.547 349.401 451.583 349.283 451.59Z" fill="white"/>
<path d="M149.289 349.537C149.192 349.551 149.094 349.551 148.996 349.537C148.82 349.457 148.68 349.312 148.607 349.132C148.533 348.953 148.531 348.752 148.601 348.571C152.1 340.217 154.398 331.411 155.426 322.413C155.447 322.218 155.545 322.041 155.697 321.918C155.85 321.796 156.045 321.74 156.239 321.761C156.433 321.782 156.611 321.88 156.733 322.032C156.855 322.185 156.912 322.38 156.891 322.574C155.838 331.711 153.506 340.654 149.963 349.142C149.898 349.263 149.801 349.365 149.682 349.435C149.563 349.504 149.427 349.54 149.289 349.537Z" fill="white"/>
<path d="M165.401 341.072H165.313C165.121 341.049 164.946 340.952 164.825 340.801C164.704 340.651 164.648 340.458 164.669 340.266C165.318 334.242 163.802 328.183 160.392 323.174C160.282 323.014 160.239 322.817 160.272 322.626C160.305 322.434 160.411 322.263 160.568 322.149C160.647 322.093 160.737 322.054 160.832 322.034C160.927 322.013 161.025 322.012 161.12 322.03C161.216 322.047 161.306 322.084 161.388 322.137C161.469 322.19 161.539 322.259 161.593 322.339C165.217 327.655 166.827 334.089 166.133 340.486C166.096 340.652 166.004 340.801 165.87 340.908C165.737 341.014 165.572 341.072 165.401 341.072Z" fill="white"/>
<path d="M251.065 303.46C250.982 303.474 250.898 303.474 250.816 303.46C250.726 303.429 250.643 303.38 250.572 303.317C250.502 303.254 250.444 303.177 250.403 303.091C250.362 303.005 250.339 302.912 250.334 302.817C250.33 302.722 250.344 302.627 250.376 302.538C252.31 296.987 265.022 266.303 269.636 255.333C269.671 255.241 269.724 255.157 269.792 255.086C269.86 255.015 269.942 254.958 270.033 254.92C270.124 254.881 270.221 254.861 270.32 254.861C270.418 254.861 270.516 254.88 270.607 254.919C270.697 254.957 270.779 255.014 270.848 255.084C270.916 255.155 270.97 255.239 271.005 255.332C271.04 255.424 271.056 255.522 271.053 255.62C271.049 255.719 271.025 255.815 270.983 255.905C266.428 266.567 253.642 297.617 251.753 303.021C251.695 303.154 251.598 303.267 251.476 303.346C251.353 303.424 251.21 303.464 251.065 303.46Z" fill="white"/>
<path d="M344.346 384.937C344.183 384.939 344.024 384.887 343.894 384.789C343.764 384.691 343.671 384.552 343.628 384.395L338.737 366.087L262.006 320.685C261.843 320.584 261.725 320.423 261.679 320.236C261.633 320.05 261.663 319.853 261.761 319.688C261.858 319.523 262.017 319.402 262.203 319.353C262.389 319.304 262.586 319.33 262.753 319.425L339.733 364.96C339.898 365.056 340.019 365.214 340.069 365.399L343.614 378.58V362.924C343.614 362.754 343.67 362.589 343.775 362.455L376.567 322.017C376.693 321.868 376.872 321.773 377.066 321.754C377.261 321.735 377.455 321.793 377.607 321.915C377.683 321.975 377.745 322.049 377.791 322.133C377.837 322.217 377.866 322.31 377.875 322.406C377.885 322.501 377.875 322.598 377.847 322.69C377.818 322.782 377.772 322.867 377.71 322.94L345.078 363.173V384.205C345.077 384.384 345.01 384.556 344.892 384.69C344.774 384.825 344.611 384.912 344.434 384.937H344.346Z" fill="white"/>
<path d="M347.949 435.466C347.821 435.466 347.696 435.436 347.583 435.378L258.593 385.581C258.508 385.535 258.433 385.473 258.373 385.398C258.312 385.323 258.267 385.237 258.24 385.144C258.213 385.052 258.204 384.955 258.214 384.859C258.225 384.763 258.254 384.67 258.3 384.585C258.398 384.416 258.559 384.291 258.749 384.239C258.938 384.187 259.14 384.211 259.311 384.307L347.905 433.825L368.863 418.916C369.022 418.804 369.217 418.759 369.408 418.789C369.6 418.819 369.772 418.922 369.888 419.077C369.945 419.155 369.985 419.245 370.006 419.339C370.028 419.433 370.031 419.531 370.014 419.626C369.998 419.721 369.963 419.812 369.911 419.894C369.859 419.976 369.792 420.046 369.713 420.102L348.373 435.29C348.253 435.391 348.105 435.452 347.949 435.466Z" fill="white"/>
<path d="M185.304 297.339C231.297 297.339 268.582 259.346 268.582 212.48C268.582 165.613 231.297 127.621 185.304 127.621C139.311 127.621 102.027 165.613 102.027 212.48C102.027 259.346 139.311 297.339 185.304 297.339Z" fill="#263238"/>
<path d="M190.871 287.541C235.254 287.541 271.234 251.561 271.234 207.178C271.234 162.795 235.254 126.815 190.871 126.815C146.488 126.815 110.508 162.795 110.508 207.178C110.508 251.561 146.488 287.541 190.871 287.541Z" fill="#BB6BD9"/>
<path d="M190.812 288.272C174.775 288.264 159.1 283.5 145.77 274.584C132.44 265.668 122.052 253 115.921 238.181C109.79 223.362 108.19 207.057 111.324 191.329C114.458 175.601 122.185 161.156 133.529 149.819C144.872 138.482 159.321 130.763 175.051 127.637C190.781 124.512 207.084 126.12 221.9 132.259C236.716 138.398 249.378 148.793 258.287 162.128C267.196 175.463 271.951 191.14 271.951 207.177C271.928 228.685 263.37 249.305 248.158 264.51C232.945 279.714 212.32 288.261 190.812 288.272ZM190.812 127.561C175.064 127.57 159.672 132.248 146.582 141.004C133.492 149.76 123.293 162.2 117.273 176.752C111.253 191.305 109.683 207.315 112.762 222.759C115.841 238.204 123.43 252.388 134.569 263.52C145.709 274.651 159.899 282.23 175.346 285.297C190.792 288.365 206.802 286.783 221.35 280.752C235.897 274.722 248.33 264.513 257.076 251.417C265.823 238.321 270.489 222.925 270.486 207.177C270.459 186.06 262.055 165.816 247.117 150.89C232.179 135.963 211.929 127.573 190.812 127.561Z" fill="#263238"/>
<path d="M159.073 176.391L184.03 246.721L234.398 190.934L159.073 176.391Z" fill="white"/>
<path d="M256.5 187.961C256.334 187.96 256.173 187.902 256.043 187.799C255.913 187.695 255.821 187.552 255.782 187.39C253.611 178.159 249.396 169.534 243.446 162.15C237.497 154.765 229.966 148.811 221.408 144.726C221.231 144.643 221.095 144.492 221.029 144.308C220.963 144.124 220.973 143.922 221.056 143.745C221.14 143.568 221.29 143.432 221.474 143.366C221.658 143.3 221.861 143.31 222.038 143.393C230.788 147.58 238.489 153.675 244.572 161.231C250.655 168.787 254.967 177.611 257.188 187.053C257.232 187.242 257.2 187.44 257.099 187.604C256.997 187.769 256.834 187.887 256.646 187.932L256.5 187.961Z" fill="white"/>
<path d="M214.612 141.886C214.534 141.9 214.455 141.9 214.377 141.886C209.715 140.3 204.883 139.263 199.98 138.795C199.884 138.786 199.791 138.757 199.706 138.712C199.621 138.666 199.545 138.604 199.484 138.529C199.423 138.454 199.377 138.368 199.349 138.276C199.321 138.183 199.312 138.086 199.321 137.99C199.331 137.894 199.359 137.8 199.405 137.715C199.451 137.63 199.513 137.555 199.588 137.493C199.662 137.432 199.748 137.386 199.841 137.359C199.934 137.331 200.031 137.321 200.127 137.331C205.115 137.812 210.03 138.874 214.773 140.494C214.967 140.525 215.141 140.632 215.256 140.792C215.372 140.951 215.419 141.15 215.388 141.344C215.357 141.538 215.25 141.712 215.091 141.827C214.931 141.943 214.733 141.99 214.539 141.959L214.612 141.886Z" fill="white"/>
<path d="M249.703 315.368C249.703 315.368 234.252 347.457 222.623 350.958L205.223 328.739L190.577 310.022L186.843 305.408L186.755 305.262L171.098 277.01L169.341 273.831L168.813 271.517L167.568 266.069L167.48 265.674L167.7 265.015L170.629 256.857L175.858 250.852V250.632L177.747 240.995L177.952 239.955L182.932 236.879C182.932 236.879 182.932 236.879 182.932 236.806C182.581 235.869 178.904 225.397 181.775 219.304C182.373 217.939 183.402 216.807 184.704 216.082C185.281 215.753 185.895 215.497 186.535 215.32C186.659 215.075 186.817 214.848 187.004 214.647C187.458 214.134 188.249 213.739 189.171 215.042C189.6 215.69 189.936 216.395 190.167 217.137C190.328 217.532 190.489 218.001 190.651 218.513C190.651 218.748 190.782 218.982 190.856 219.231C190.929 219.48 191.017 219.758 191.105 220.037C191.28 220.622 191.471 221.208 191.661 221.794C194.356 230.172 199.394 244.408 199.775 245.433L211.946 249.446L213.41 249.914L214.128 251.877L218.375 263.506L218.654 264.268L218.786 265.205L221.48 287.496L221.583 287.599L244.563 310.285L249.703 315.368Z" fill="white"/>
<path d="M251.066 317.154C250.879 317.153 250.701 317.08 250.568 316.949C229.975 297.704 220.997 288.111 220.91 288.023C220.802 287.906 220.736 287.757 220.719 287.599L219.342 273.494C218.776 268.328 217.716 263.227 216.179 258.262C215.44 255.28 213.924 252.546 211.785 250.339C209.398 248.098 206.381 247.542 203.173 246.941C201.987 246.721 200.757 246.502 199.556 246.179C199.463 246.156 199.375 246.114 199.299 246.056C199.222 245.997 199.158 245.925 199.11 245.841C199.063 245.758 199.032 245.666 199.02 245.57C199.009 245.475 199.016 245.378 199.043 245.286C199.067 245.193 199.109 245.105 199.167 245.028C199.225 244.951 199.297 244.886 199.38 244.837C199.463 244.788 199.555 244.756 199.651 244.742C199.746 244.729 199.843 244.735 199.936 244.759C201.079 245.066 202.28 245.286 203.451 245.506C206.718 246.106 210.086 246.736 212.796 249.284C215.108 251.667 216.75 254.617 217.556 257.838C219.126 262.903 220.209 268.106 220.792 273.377L222.154 287.232C223.473 288.624 232.553 298.129 251.564 315.909C251.673 316.009 251.75 316.14 251.784 316.284C251.818 316.428 251.807 316.58 251.753 316.718C251.699 316.856 251.605 316.974 251.482 317.058C251.359 317.141 251.214 317.185 251.066 317.184V317.154Z" fill="#263238"/>
<path d="M204.579 258.454C204.435 258.451 204.294 258.407 204.175 258.327C204.055 258.246 203.962 258.133 203.905 258C202.353 254.207 200.771 250.194 199.087 245.726C198.486 244.189 197.9 242.622 197.329 241.069C194.942 234.639 192.935 228.151 190.958 222.029C190.768 221.458 190.577 220.858 190.401 220.272V220.067C190.327 219.86 190.263 219.65 190.211 219.437L189.45 217.093C189.45 216.976 189.376 216.874 189.347 216.757C189.216 216.328 189.002 215.93 188.717 215.585L188.644 215.497C188.463 215.336 188.237 215.234 187.996 215.205C187.755 215.176 187.511 215.222 187.297 215.336C186.997 215.436 186.712 215.574 186.447 215.746C186.025 216.001 185.627 216.295 185.261 216.625C184.303 217.484 183.539 218.537 183.02 219.715L182.873 220.037C181.277 223.933 182.156 228.679 182.873 232.15C183.152 233.614 183.445 235.079 183.767 236.661C183.76 236.685 183.76 236.71 183.767 236.734C185.231 243.515 187.091 250.076 188.732 255.598C188.764 255.775 188.73 255.957 188.637 256.11C188.543 256.264 188.397 256.377 188.225 256.43C188.054 256.482 187.869 256.47 187.705 256.395C187.542 256.32 187.412 256.187 187.34 256.023C185.685 250.472 183.796 243.881 182.332 236.983C181.995 235.518 181.687 233.951 181.409 232.428C180.735 228.781 179.798 223.787 181.555 219.495L181.716 219.129C182.332 217.768 183.219 216.547 184.323 215.541C184.777 215.147 185.267 214.799 185.788 214.501C186.156 214.276 186.549 214.094 186.96 213.959C187.294 213.84 187.645 213.776 188 213.769C188.346 213.766 188.689 213.833 189.009 213.966C189.329 214.1 189.618 214.297 189.86 214.545L189.947 214.662C190.353 215.162 190.661 215.733 190.856 216.347L191.72 219.041C191.72 219.261 191.837 219.451 191.895 219.642V219.847C192.071 220.433 192.262 221.019 192.452 221.59C194.371 227.683 196.421 234.156 198.808 240.542C199.38 242.109 199.965 243.661 200.551 245.199C202.25 249.593 203.817 253.65 205.37 257.429C205.405 257.518 205.423 257.614 205.422 257.71C205.42 257.806 205.4 257.901 205.362 257.99C205.324 258.078 205.269 258.158 205.2 258.225C205.131 258.292 205.049 258.345 204.96 258.381C204.844 258.447 204.71 258.472 204.579 258.454Z" fill="#263238"/>
<path d="M177.63 261.119C177.472 261.117 177.319 261.065 177.193 260.97C177.067 260.875 176.974 260.743 176.927 260.592C175.952 257.352 175.353 254.01 175.14 250.633C174.85 247.236 175.504 243.825 177.03 240.776L177.147 240.556C178.336 238.821 180.135 237.597 182.185 237.129C182.281 237.103 182.382 237.096 182.48 237.109C182.579 237.122 182.675 237.154 182.761 237.204C182.847 237.253 182.923 237.32 182.984 237.399C183.045 237.477 183.089 237.568 183.115 237.664C183.141 237.76 183.148 237.86 183.135 237.959C183.122 238.058 183.09 238.153 183.041 238.239C182.991 238.326 182.925 238.402 182.846 238.462C182.767 238.523 182.677 238.568 182.581 238.594C180.879 238.967 179.382 239.972 178.392 241.406L178.289 241.582C176.907 244.381 176.324 247.508 176.605 250.618C176.812 253.882 177.397 257.111 178.348 260.241C178.398 260.429 178.372 260.629 178.276 260.799C178.181 260.968 178.022 261.094 177.835 261.149L177.63 261.119Z" fill="#263238"/>
<path d="M221.481 349.068C221.372 349.069 221.265 349.045 221.166 349C221.068 348.954 220.98 348.888 220.91 348.805L186.272 305.862L186.184 305.731C180.385 296.563 175.123 287.066 170.425 277.288C169.458 275.194 168.697 273.378 168.111 271.737C167.564 270.303 167.109 268.835 166.749 267.343C166.742 267.275 166.742 267.206 166.749 267.138C166.749 266.743 166.749 266.347 166.837 265.937C166.925 265.527 166.837 265.22 166.983 264.854C167.443 261.902 168.436 259.058 169.912 256.461C171.234 253.984 173.108 251.844 175.39 250.207C175.553 250.103 175.751 250.067 175.941 250.108C176.13 250.15 176.296 250.264 176.401 250.427C176.454 250.507 176.491 250.598 176.509 250.692C176.528 250.787 176.526 250.885 176.506 250.979C176.485 251.074 176.446 251.163 176.39 251.242C176.334 251.32 176.263 251.387 176.181 251.438C174.107 252.959 172.401 254.926 171.187 257.194C169.776 259.636 168.828 262.317 168.389 265.103C168.326 265.437 168.282 265.774 168.257 266.113C168.208 266.443 168.178 266.776 168.17 267.109C168.513 268.511 168.943 269.891 169.458 271.239C170.03 272.836 170.777 274.622 171.729 276.673C176.389 286.35 181.596 295.753 187.327 304.837C187.367 304.887 187.401 304.941 187.429 304.998L222.023 347.882C222.144 348.032 222.202 348.224 222.183 348.416C222.163 348.608 222.069 348.784 221.921 348.907C221.796 349.008 221.641 349.064 221.481 349.068Z" fill="#263238"/>
<path d="M256.718 312.175C254.83 317.462 252.323 322.506 249.249 327.202C238.176 344.675 221.758 363.231 221.758 363.231C211.286 353.668 196.772 331.508 196.772 331.508C203.963 327.114 215.475 314.328 221.949 306.141C228.158 298.276 232.655 291.583 232.655 291.583L256.718 312.175Z" fill="white"/>
<path d="M221.73 363.964C221.546 363.964 221.369 363.896 221.232 363.773C210.819 354.253 196.334 332.138 196.129 331.904C196.073 331.823 196.035 331.732 196.017 331.636C196 331.54 196.003 331.442 196.026 331.347C196.069 331.155 196.184 330.987 196.348 330.878C203.671 326.397 215.286 313.303 221.349 305.687C227.413 298.071 231.967 291.246 232.011 291.188C232.07 291.101 232.145 291.028 232.234 290.972C232.322 290.917 232.421 290.88 232.524 290.865C232.625 290.851 232.728 290.858 232.827 290.886C232.925 290.913 233.017 290.961 233.095 291.026L257.173 311.619C257.284 311.717 257.364 311.846 257.403 311.989C257.442 312.132 257.439 312.283 257.393 312.424C255.472 317.749 252.936 322.832 249.836 327.568C238.866 344.895 222.433 363.51 222.272 363.686C222.141 363.833 221.956 363.923 221.759 363.934L221.73 363.964ZM197.754 331.743C200.142 335.316 212.4 353.477 221.671 362.192C224.498 358.955 238.763 342.361 248.605 326.821C251.554 322.312 253.981 317.482 255.841 312.424L232.773 292.696C231.455 294.6 227.53 300.254 222.521 306.61C216.545 314.123 205.224 326.807 197.754 331.728V331.743Z" fill="#263238"/>
<path opacity="0.1" d="M256.719 312.174C254.991 317.242 248.928 325.912 245.823 330.79L220.221 308.528C226.446 300.663 232.627 291.655 232.627 291.655L256.719 312.174Z" fill="black"/>
<path d="M87.6307 216.931C87.4696 214.734 87.4256 212.127 88.1579 211.234C88.9459 210.387 89.8976 209.709 90.9553 209.242C100.988 204.013 111.035 198.784 121.404 194.215C122.313 193.819 123.455 193.439 124.26 194.039C124.562 194.344 124.779 194.721 124.892 195.134C125.005 195.547 125.009 195.982 124.905 196.397C124.402 199.053 123.123 201.499 121.229 203.427C118.663 206.332 115.61 208.765 112.207 210.618C111.043 211.188 109.917 211.834 108.838 212.552C107.467 213.651 106.193 214.867 105.03 216.184C104.107 217.115 103.129 217.991 102.101 218.806" fill="white"/>
<path d="M102.116 219.539C102.005 219.542 101.895 219.518 101.796 219.47C101.697 219.421 101.61 219.35 101.544 219.261C101.483 219.187 101.438 219.101 101.41 219.008C101.383 218.916 101.375 218.819 101.386 218.723C101.397 218.628 101.427 218.535 101.474 218.452C101.521 218.368 101.585 218.294 101.662 218.236C102.66 217.44 103.609 216.584 104.503 215.673C104.815 215.36 105.108 215.053 105.382 214.75C106.307 213.729 107.321 212.792 108.413 211.953C109.249 211.377 110.125 210.863 111.035 210.415L111.855 209.975C115.177 208.164 118.152 205.779 120.643 202.931C122.455 201.129 123.681 198.821 124.158 196.311C124.158 195.93 124.26 194.992 123.777 194.626C123.294 194.26 122.313 194.626 121.668 194.89C111.328 199.445 101.164 204.761 91.2629 209.902C90.293 210.312 89.4199 210.921 88.6999 211.689C88.4509 211.997 88.0701 213.154 88.3337 216.888C88.3404 216.984 88.3282 217.081 88.2976 217.172C88.267 217.264 88.2187 217.348 88.1555 217.421C88.0278 217.568 87.8469 217.658 87.6527 217.672C87.4585 217.685 87.2668 217.621 87.1198 217.494C86.9729 217.366 86.8827 217.185 86.8691 216.991C86.6348 213.578 86.8691 211.66 87.5575 210.766C88.4109 209.846 89.4423 209.108 90.5892 208.599C100.475 203.443 110.684 198.127 121.068 193.557C121.604 193.218 122.221 193.029 122.855 193.011C123.489 192.993 124.116 193.146 124.671 193.455C125.081 193.832 125.384 194.311 125.549 194.844C125.714 195.376 125.734 195.943 125.608 196.486C125.104 199.297 123.755 201.887 121.741 203.912C119.12 206.871 116.003 209.349 112.529 211.235L111.694 211.674C109.665 212.631 107.867 214.015 106.422 215.731C106.129 216.053 105.821 216.361 105.528 216.669C104.604 217.617 103.626 218.512 102.599 219.349C102.466 219.468 102.294 219.536 102.116 219.539Z" fill="#263238"/>
<path d="M96.3452 217.035C97.0616 216.676 97.8062 216.378 98.5714 216.141C105.894 213.93 113.877 214.457 121.273 212.377C125.008 211.323 128.596 209.594 132.55 209.624C133.722 209.624 135.318 210.107 135.187 211.572C135.055 213.036 134.044 213.622 133.268 214.501C132.414 215.536 131.495 216.514 130.514 217.43C128.471 219.225 126.139 220.661 123.616 221.677C119.908 222.959 116.081 223.866 112.192 224.387C108.443 225.105 104.869 226.262 101.193 227.316C100.285 227.58 99.3623 227.814 98.425 228.005" fill="white"/>
<path d="M98.4237 228.766C98.2556 228.763 98.0934 228.704 97.9631 228.598C97.8329 228.491 97.7423 228.344 97.7061 228.18C97.6868 228.086 97.6863 227.989 97.7046 227.894C97.7229 227.8 97.7596 227.71 97.8127 227.63C97.8657 227.549 97.934 227.48 98.0138 227.426C98.0935 227.373 98.183 227.335 98.2773 227.316C99.0975 227.155 99.9616 226.935 100.987 226.642L103.213 225.998C106.101 225.083 109.034 224.316 112.001 223.698L114.505 223.244C117.506 222.83 120.453 222.088 123.293 221.033C125.738 220.045 128.001 218.654 129.986 216.917C130.688 216.271 131.344 215.576 131.949 214.837L132.681 214.003C132.827 213.827 133.003 213.651 133.164 213.49C133.791 212.984 134.229 212.283 134.409 211.498C134.432 211.283 134.369 211.067 134.233 210.898C133.739 210.508 133.118 210.315 132.49 210.356C129.772 210.492 127.095 211.076 124.567 212.084C123.527 212.435 122.473 212.787 121.418 213.08C117.747 214.006 114.003 214.619 110.228 214.911C106.349 215.194 102.504 215.841 98.7459 216.844C98.0142 217.063 97.3035 217.348 96.6223 217.693C96.4493 217.78 96.249 217.795 96.0652 217.735C95.8813 217.674 95.7288 217.544 95.641 217.371C95.5572 217.195 95.5439 216.994 95.6039 216.809C95.6638 216.624 95.7924 216.469 95.9632 216.375C96.7239 216.002 97.5122 215.689 98.3212 215.438C102.156 214.411 106.079 213.744 110.038 213.446C113.733 213.164 117.398 212.571 120.993 211.674C122.033 211.381 123.044 211.044 124.069 210.693C126.754 209.636 129.594 209.027 132.476 208.891C133.512 208.848 134.523 209.217 135.288 209.916C135.495 210.147 135.651 210.419 135.745 210.714C135.838 211.01 135.867 211.322 135.83 211.63C135.658 212.774 135.075 213.815 134.189 214.559L133.735 215.028L133.032 215.848C132.381 216.633 131.681 217.376 130.938 218.074C128.827 219.926 126.421 221.411 123.82 222.468C120.878 223.551 117.829 224.317 114.725 224.753L112.25 225.207C109.32 225.778 106.391 226.671 103.55 227.477L101.324 228.121C100.269 228.429 99.3464 228.649 98.497 228.824L98.4237 228.766Z" fill="#263238"/>
<path d="M94.9392 227.33C96.4305 226.126 98.1718 225.27 100.036 224.825C103.568 224.327 107.152 224.327 110.684 224.825C116.886 225.321 123.12 225.267 129.313 224.664C130.31 224.474 131.334 224.474 132.331 224.664C138.086 226.29 130.324 231.885 128.156 232.822C119.618 236.528 109.512 236.703 100.329 236.484" fill="white"/>
<path d="M104.913 237.392C103.448 237.392 101.852 237.392 100.343 237.392C100.247 237.39 100.152 237.369 100.064 237.331C99.9758 237.292 99.8961 237.237 99.8295 237.167C99.7629 237.098 99.7105 237.016 99.6755 236.927C99.6405 236.837 99.6235 236.741 99.6254 236.645C99.633 236.452 99.715 236.27 99.8543 236.136C99.9935 236.002 100.179 235.927 100.372 235.928C109.79 236.162 119.647 235.928 127.863 232.325C129.606 231.578 133.721 228.414 133.721 226.715C133.721 226.217 133.18 225.822 132.184 225.544C131.293 225.381 130.38 225.381 129.489 225.544C123.233 226.158 116.935 226.217 110.669 225.719L109.204 225.602C106.202 225.176 103.155 225.176 100.153 225.602C98.4036 226.03 96.769 226.835 95.3634 227.96C95.2098 228.078 95.0157 228.131 94.8236 228.106C94.6314 228.081 94.4569 227.981 94.3382 227.828C94.2184 227.677 94.1636 227.484 94.1855 227.292C94.2075 227.1 94.3045 226.924 94.4554 226.803C96.0377 225.532 97.8842 224.632 99.8598 224.167C102.998 223.691 106.189 223.662 109.336 224.079L110.712 224.196C116.871 224.684 123.061 224.63 129.21 224.035C130.305 223.856 131.424 223.891 132.506 224.138C134.571 224.723 135.069 225.807 135.113 226.613C135.318 229.542 129.635 233.145 128.405 233.672C121.302 236.762 113.07 237.392 104.913 237.392Z" fill="#263238"/>
<path d="M105.645 237.07C105.645 237.07 117.83 253.181 108.955 268.545Z" fill="white"/>
<path d="M108.956 269.277C108.828 269.278 108.703 269.248 108.589 269.19C108.422 269.089 108.301 268.928 108.249 268.74C108.197 268.552 108.219 268.351 108.311 268.179C116.85 253.372 105.177 237.671 105.06 237.525C105.001 237.448 104.958 237.36 104.933 237.267C104.909 237.173 104.902 237.076 104.915 236.98C104.928 236.884 104.96 236.791 105.009 236.708C105.057 236.624 105.122 236.551 105.199 236.492C105.276 236.434 105.364 236.391 105.457 236.366C105.551 236.341 105.648 236.335 105.744 236.348C105.84 236.361 105.932 236.392 106.016 236.441C106.099 236.49 106.173 236.554 106.231 236.631C106.349 236.792 118.607 253.24 109.585 268.853C109.529 268.974 109.441 269.078 109.33 269.153C109.219 269.228 109.089 269.271 108.956 269.277Z" fill="#263238"/>
<path d="M151.59 305.379C151.59 305.379 146.771 313.215 131.495 319.307C122.072 322.887 112.172 325.059 102.115 325.752L97.6335 294.263C97.6335 294.263 107.446 296.035 121.726 289.971C127.082 287.668 132.154 284.753 136.841 281.286L151.59 305.379Z" fill="white"/>
<path d="M102.115 326.484C101.939 326.486 101.769 326.422 101.637 326.306C101.504 326.19 101.419 326.029 101.398 325.855L96.916 294.366C96.8971 294.252 96.9058 294.135 96.9415 294.026C96.9772 293.916 97.0388 293.817 97.121 293.736C97.2079 293.659 97.3106 293.602 97.422 293.569C97.5334 293.536 97.6506 293.528 97.7655 293.545C97.8533 293.545 107.549 295.186 121.448 289.298C126.746 287.016 131.764 284.132 136.402 280.701C136.485 280.64 136.58 280.597 136.681 280.575C136.782 280.552 136.886 280.55 136.988 280.569C137.185 280.616 137.358 280.737 137.471 280.906L152.205 304.999C152.276 305.116 152.314 305.25 152.314 305.387C152.314 305.524 152.276 305.658 152.205 305.775C152 306.097 147.093 313.874 131.774 319.982C122.277 323.58 112.305 325.771 102.174 326.484H102.115ZM98.5417 295.113L102.789 324.961C112.538 324.225 122.131 322.094 131.276 318.634C144.252 313.449 149.598 306.917 150.755 305.365L136.621 282.356C132.061 285.652 127.149 288.432 121.975 290.645C110.112 295.698 101.354 295.347 98.5417 295.113Z" fill="#263238"/>
<path opacity="0.1" d="M151.59 305.379C151.59 305.379 146.772 313.214 131.496 319.307L121.727 290.015C127.083 287.711 132.155 284.797 136.842 281.33L151.59 305.379Z" fill="black"/>
<path d="M376.199 141.329C376.199 141.329 379.773 143.116 383.332 137.052C386.891 130.989 389.996 114.38 382.16 112.96C371.571 107.804 367.998 115.288 367.998 115.288L361.568 92.1036C361.568 92.1036 359.796 70.691 346.234 72.4779C332.671 74.2647 324.821 89.2476 324.821 89.2476L288.074 90.7122L287.005 111.407C287.005 111.407 280.942 107.13 279.155 112.476C277.368 117.822 277.368 135.676 292.336 141.373C292.336 141.373 298.195 167.955 316.151 182.499L324.938 183.012L322.99 203.824C325.037 208.093 327.925 211.905 331.481 215.031C335.037 218.157 339.188 220.532 343.685 222.014C358.683 226.657 372.538 197.467 372.538 197.467C372.538 197.467 372.889 161.291 376.199 141.329Z" fill="white"/>
<path d="M298.915 93.9633C305.52 97.903 312.579 101.286 320.181 102.575C327.782 103.864 335.998 102.575 342.15 98.0202C341.959 103.111 342.451 108.204 343.614 113.164C344.962 117.924 347.847 122.464 352.255 124.691C352.724 130.549 353.281 136.407 353.72 142.383C354.116 147.348 354.335 153.778 352.373 158.362C350.213 163.818 346.589 168.571 341.901 172.1C337.068 175.688 333.113 177.006 326.024 181.664C325.512 182.001 325.761 183.216 326.185 182.777C332.993 182.173 339.478 179.598 344.845 175.366C344.845 175.366 356.957 198.931 357.279 216.931L372.584 197.423C372.584 197.423 371.676 155.814 376.905 141.065C376.905 141.065 384.433 141.343 386.395 127.283C388.358 113.223 379.849 111.905 379.849 111.905C379.849 111.905 350.732 69.0357 343.541 72.9608C336.35 76.886 298.915 93.9633 298.915 93.9633Z" fill="#BB6BD9"/>
<path opacity="0.5" d="M298.915 93.9633C305.52 97.903 312.579 101.286 320.181 102.575C327.782 103.864 335.998 102.575 342.15 98.0202C341.959 103.111 342.451 108.204 343.614 113.164C344.962 117.924 347.847 122.464 352.255 124.691C352.724 130.549 353.281 136.407 353.72 142.383C354.116 147.348 354.335 153.778 352.373 158.362C350.213 163.818 346.589 168.571 341.901 172.1C337.068 175.688 333.113 177.006 326.024 181.664C325.512 182.001 325.761 183.216 326.185 182.777C332.993 182.173 339.478 179.598 344.845 175.366C344.845 175.366 356.957 198.931 357.279 216.931L372.584 197.423C372.584 197.423 371.676 155.814 376.905 141.065C376.905 141.065 384.433 141.343 386.395 127.283C388.358 113.223 379.849 111.905 379.849 111.905C379.849 111.905 350.732 69.0357 343.541 72.9608C336.35 76.886 298.915 93.9633 298.915 93.9633Z" fill="white"/>
<path d="M291.196 140.523H291.02C284.18 138.927 279.464 133.771 277.838 125.979C276.286 118.847 277.677 111.07 279.845 109.385C280.213 109.092 280.641 108.882 281.099 108.77C281.557 108.659 282.034 108.649 282.496 108.741C285.762 109.298 288.969 114.204 289.101 114.409C289.208 114.572 289.246 114.771 289.206 114.962C289.166 115.153 289.052 115.32 288.889 115.427C288.808 115.48 288.718 115.516 288.623 115.534C288.528 115.552 288.43 115.551 288.336 115.532C288.145 115.492 287.978 115.378 287.871 115.215C287.051 113.94 284.429 110.557 282.247 110.176C281.991 110.132 281.728 110.141 281.476 110.204C281.223 110.267 280.987 110.382 280.782 110.543C279.318 111.656 277.765 118.642 279.318 125.672C280.431 130.769 283.433 137.228 291.474 139.102C291.662 139.148 291.825 139.265 291.926 139.43C292.028 139.595 292.06 139.793 292.016 139.981C291.974 140.159 291.865 140.314 291.713 140.414C291.561 140.515 291.376 140.554 291.196 140.523Z" fill="#263238"/>
<path d="M390.321 225.91C390.324 225.954 390.324 225.998 390.321 226.042C387.112 230.293 383.56 234.276 379.702 237.949C379.117 238.52 378.501 239.077 377.901 239.618C369.825 247.059 360.809 253.411 351.084 258.512L350.864 258.644L344.376 219.627C353.671 214.264 361.938 207.291 368.791 199.034L369.26 198.536C370.27 197.423 371.999 195.841 372.526 195.021C374.313 192.253 373.991 193.439 373.991 193.439L372.819 187.889L372.204 185.062L372.863 185.37C390.365 198.068 390.716 223.654 390.321 225.91Z" fill="white"/>
<path d="M350.834 259.405C350.72 259.403 350.61 259.373 350.511 259.317C350.407 259.268 350.317 259.195 350.248 259.103C350.179 259.011 350.134 258.903 350.116 258.79L343.613 219.773C343.6 219.659 343.611 219.544 343.646 219.435C343.682 219.327 343.74 219.227 343.818 219.143C343.927 219.05 344.051 218.975 344.184 218.923C352.553 213.249 360.326 206.743 367.384 199.503L369.024 197.745C371.197 195.539 373.232 193.201 375.117 190.744C375.172 190.666 375.243 190.598 375.325 190.547C375.407 190.495 375.498 190.46 375.593 190.444C375.688 190.428 375.786 190.43 375.88 190.452C375.974 190.473 376.063 190.513 376.142 190.569C376.221 190.624 376.288 190.695 376.339 190.777C376.391 190.859 376.426 190.95 376.442 191.045C376.458 191.14 376.456 191.238 376.434 191.332C376.413 191.426 376.373 191.515 376.318 191.594C374.391 194.101 372.312 196.488 370.093 198.741L368.453 200.499C361.357 207.772 353.55 214.317 345.151 220.036L351.375 257.486C360.459 251.954 369.155 245.808 377.401 239.091C378.017 238.593 378.617 238.066 379.203 237.553C384.461 232.954 387.991 228.985 389.631 225.719C390.231 223.317 387.903 198.961 373.022 186.175C372.949 186.112 372.889 186.036 372.845 185.95C372.802 185.865 372.776 185.771 372.768 185.675C372.761 185.579 372.772 185.483 372.802 185.391C372.832 185.3 372.879 185.215 372.942 185.142C373.004 185.069 373.081 185.009 373.166 184.966C373.252 184.922 373.345 184.896 373.441 184.888C373.537 184.881 373.634 184.892 373.725 184.922C373.816 184.952 373.901 184.999 373.974 185.062C389.616 198.448 391.696 223.42 391.037 226.071C391.037 226.071 391.037 226.246 391.037 226.261C389.235 229.791 385.618 233.921 380.228 238.637C379.642 239.164 379.012 239.691 378.397 240.204C369.878 247.136 360.888 253.468 351.493 259.156C351.411 259.215 351.322 259.264 351.229 259.303C351.111 259.377 350.973 259.413 350.834 259.405Z" fill="#263238"/>
<path d="M344.346 219.655L327.108 258.731C327.108 258.731 308.947 234.419 308.42 214.192C311.056 203.281 313.897 197.203 325.16 190.598L323.886 198.463C323.886 198.463 325.966 217.048 344.346 219.655Z" fill="white"/>
<path d="M327.109 259.405C326.99 259.406 326.873 259.376 326.768 259.32C326.663 259.264 326.574 259.182 326.508 259.083C326.347 258.849 309.709 234.346 307.703 214.208C307.688 214.14 307.688 214.07 307.703 214.003C311.423 193.908 323.916 190.569 324.443 190.452C324.633 190.407 324.833 190.439 325 190.541C325.167 190.642 325.288 190.804 325.337 190.994C325.361 191.086 325.366 191.182 325.352 191.277C325.339 191.371 325.307 191.462 325.258 191.544C325.208 191.626 325.143 191.697 325.067 191.753C324.99 191.81 324.902 191.85 324.809 191.872C324.678 191.872 312.726 195.153 309.167 214.164C310.94 231.505 323.813 252.243 326.992 257.15L343.439 219.92C334.921 213.451 327.663 205.473 322.027 196.383C321.975 196.302 321.941 196.211 321.925 196.116C321.909 196.021 321.912 195.923 321.934 195.83C321.956 195.736 321.996 195.647 322.052 195.569C322.108 195.49 322.179 195.424 322.261 195.373C322.427 195.273 322.625 195.242 322.814 195.286C323.002 195.33 323.166 195.445 323.272 195.607C328.884 204.709 336.175 212.662 344.757 219.041C344.899 219.139 345.003 219.282 345.051 219.448C345.099 219.613 345.088 219.79 345.021 219.949L327.782 258.951C327.731 259.072 327.648 259.176 327.542 259.253C327.437 259.33 327.312 259.378 327.182 259.391L327.109 259.405Z" fill="#263238"/>
<path opacity="0.12" d="M390.32 225.734V225.881C388.43 229.572 384.461 233.79 379.731 237.92C379.731 237.92 379.731 237.832 379.731 237.803C377.504 218.514 368.014 200.016 368.014 200.016L373.696 193.425L372.95 185.209C388.211 199.298 390.715 223.479 390.32 225.734Z" fill="black"/>
<path d="M324.091 198.8H323.886C323.7 198.749 323.542 198.626 323.446 198.459C323.35 198.292 323.324 198.093 323.374 197.907C324.549 193.058 324.851 188.039 324.267 183.085C324.242 182.893 324.294 182.698 324.412 182.545C324.53 182.391 324.705 182.29 324.897 182.265C325.089 182.24 325.283 182.292 325.437 182.41C325.591 182.528 325.691 182.702 325.717 182.895C326.342 188.039 326.03 193.254 324.794 198.288C324.747 198.437 324.654 198.567 324.527 198.66C324.401 198.752 324.248 198.801 324.091 198.8Z" fill="#263238"/>
<path d="M373.214 195.006C373.027 195.006 372.847 194.935 372.711 194.807C372.575 194.679 372.493 194.504 372.482 194.317C370.856 160.529 376.143 141.05 376.202 140.859C376.259 140.675 376.385 140.519 376.554 140.423C376.723 140.328 376.922 140.301 377.11 140.347C377.296 140.401 377.453 140.527 377.547 140.698C377.64 140.868 377.662 141.068 377.608 141.255C377.608 141.445 372.335 160.719 373.931 194.244C373.937 194.34 373.924 194.435 373.893 194.526C373.861 194.616 373.812 194.699 373.748 194.77C373.683 194.841 373.606 194.898 373.519 194.939C373.433 194.979 373.339 195.002 373.243 195.006H373.214Z" fill="#263238"/>
<path d="M317.985 145.401C317.1 145.38 316.22 145.257 315.363 145.035C312.946 144.463 310.046 143.482 309.051 140.875C308.749 139.824 308.71 138.714 308.937 137.644C309.164 136.574 309.651 135.576 310.354 134.738C310.867 134.021 311.438 133.362 311.994 132.717C312.715 131.951 313.367 131.123 313.942 130.242C316.271 126.463 315.612 121.659 314.66 116.665C314.625 116.473 314.667 116.275 314.777 116.114C314.886 115.952 315.055 115.84 315.246 115.801C315.436 115.767 315.632 115.809 315.791 115.919C315.95 116.029 316.06 116.197 316.095 116.387C317.062 121.469 317.794 126.786 315.187 131.033C314.571 131.983 313.875 132.88 313.107 133.713C312.551 134.319 312.028 134.955 311.54 135.617C311.003 136.272 310.623 137.042 310.43 137.868C310.237 138.693 310.236 139.551 310.427 140.377C311.174 142.34 313.635 143.145 315.7 143.629C317 144.108 318.435 144.077 319.713 143.541C319.795 143.49 319.886 143.455 319.981 143.44C320.076 143.424 320.173 143.427 320.267 143.449C320.36 143.47 320.449 143.51 320.528 143.566C320.606 143.622 320.672 143.693 320.723 143.775C320.774 143.857 320.809 143.948 320.825 144.043C320.84 144.138 320.837 144.235 320.816 144.329C320.794 144.423 320.754 144.511 320.698 144.59C320.642 144.668 320.571 144.735 320.489 144.786C319.727 145.218 318.86 145.431 317.985 145.401Z" fill="#263238"/>
<path d="M308.493 119.228C308.625 121.967 307.527 124.237 306.048 124.296C304.568 124.355 303.279 122.202 303.118 119.463C302.957 116.724 304.085 114.454 305.564 114.381C307.044 114.307 308.376 116.49 308.493 119.228Z" fill="#263238"/>
<path d="M338.605 118.51C338.737 121.249 337.639 123.519 336.16 123.577C334.68 123.636 333.391 121.483 333.23 118.744C333.069 116.005 334.197 113.735 335.676 113.662C337.155 113.589 338.488 115.771 338.605 118.51Z" fill="#263238"/>
<path d="M324.867 156.21C322.162 156.269 319.479 155.718 317.017 154.599C316.936 154.544 316.867 154.474 316.814 154.393C316.761 154.312 316.725 154.221 316.707 154.126C316.689 154.03 316.691 153.933 316.711 153.838C316.732 153.743 316.771 153.653 316.826 153.573C316.879 153.494 316.948 153.425 317.027 153.372C317.107 153.319 317.197 153.283 317.291 153.265C317.385 153.247 317.482 153.249 317.576 153.269C317.67 153.289 317.758 153.328 317.837 153.383C321.202 154.747 324.893 155.098 328.455 154.394C330.51 153.967 332.456 153.123 334.171 151.913C335.887 150.704 337.336 149.156 338.429 147.364C338.539 147.203 338.707 147.09 338.898 147.049C339.089 147.008 339.288 147.042 339.454 147.144C339.616 147.254 339.728 147.423 339.766 147.615C339.804 147.806 339.766 148.005 339.659 148.169C338.46 150.132 336.868 151.826 334.982 153.144C333.097 154.462 330.96 155.377 328.704 155.829C327.442 156.088 326.156 156.216 324.867 156.21Z" fill="#263238"/>
<path d="M325.395 103.864C325.281 103.863 325.17 103.836 325.068 103.785C324.967 103.735 324.878 103.661 324.809 103.571C324.692 103.416 324.642 103.221 324.67 103.028C324.697 102.836 324.8 102.663 324.955 102.546C331.356 97.8446 335.735 97.6689 342.326 101.828C342.488 101.934 342.603 102.098 342.647 102.286C342.691 102.475 342.659 102.673 342.56 102.839C342.455 103.002 342.289 103.116 342.1 103.158C341.911 103.199 341.713 103.163 341.549 103.059C335.442 99.2067 331.766 99.3678 325.834 103.718C325.708 103.814 325.553 103.865 325.395 103.864Z" fill="#263238"/>
<path d="M298.446 106.486C298.269 106.485 298.098 106.423 297.963 106.31C297.888 106.25 297.827 106.175 297.782 106.09C297.738 106.005 297.71 105.912 297.702 105.816C297.694 105.721 297.705 105.625 297.735 105.533C297.764 105.442 297.812 105.358 297.875 105.285C299.539 103.421 301.817 102.215 304.295 101.887C306.773 101.559 309.286 102.131 311.378 103.498C311.535 103.613 311.641 103.784 311.674 103.975C311.707 104.167 311.664 104.363 311.554 104.524C311.442 104.679 311.274 104.785 311.085 104.818C310.896 104.851 310.701 104.808 310.544 104.699C308.762 103.525 306.619 103.027 304.502 103.296C302.385 103.564 300.434 104.582 299.002 106.164C298.941 106.257 298.859 106.335 298.762 106.391C298.666 106.447 298.557 106.479 298.446 106.486Z" fill="#263238"/>
<path d="M320.546 183.436C319.048 183.457 317.55 183.369 316.064 183.173C315.943 183.158 315.827 183.112 315.727 183.041C315.332 182.719 305.841 175.308 298.255 159.915C285.337 133.742 287.812 95.9115 287.841 95.4721C287.855 95.2779 287.945 95.097 288.092 94.9693C288.239 94.8416 288.431 94.7775 288.625 94.7911C288.819 94.8047 289 94.8949 289.128 95.0418C289.255 95.1888 289.319 95.3805 289.306 95.5747C289.306 95.9555 286.831 133.391 299.558 159.212C303.62 167.771 309.375 175.419 316.474 181.693C321.594 182.183 326.76 181.797 331.75 180.551C341.226 178.252 350.204 170.826 356.092 165.012C356.159 164.943 356.238 164.889 356.326 164.852C356.414 164.815 356.509 164.796 356.604 164.796C356.7 164.796 356.794 164.815 356.882 164.852C356.97 164.889 357.05 164.943 357.117 165.012C357.187 165.077 357.243 165.157 357.281 165.245C357.319 165.333 357.339 165.428 357.339 165.524C357.339 165.62 357.319 165.715 357.281 165.803C357.243 165.892 357.187 165.971 357.117 166.037C351.112 171.983 341.9 179.57 332.102 181.972C328.32 182.912 324.442 183.403 320.546 183.436Z" fill="#263238"/>
<path d="M356.606 166.33C356.479 166.331 356.353 166.301 356.24 166.242C356.074 166.144 355.952 165.986 355.9 165.8C355.848 165.615 355.87 165.416 355.961 165.246C363.211 152.255 364.749 143.951 364.822 143.878C364.857 143.683 364.968 143.511 365.13 143.398C365.292 143.286 365.492 143.242 365.686 143.277C365.881 143.312 366.053 143.423 366.166 143.585C366.278 143.747 366.322 143.947 366.287 144.141C366.214 144.478 364.632 152.738 357.25 165.949C357.188 166.066 357.095 166.163 356.982 166.23C356.868 166.297 356.738 166.332 356.606 166.33Z" fill="#263238"/>
<path d="M376.084 141.827C371.925 141.827 370.504 139.322 370.431 139.19C370.338 139.019 370.316 138.818 370.371 138.632C370.426 138.445 370.553 138.288 370.724 138.194C370.895 138.101 371.096 138.08 371.282 138.135C371.469 138.189 371.626 138.316 371.72 138.487C371.72 138.604 373.433 141.343 378.911 139.952C382.309 139.102 386.307 129.802 386.424 122.479C386.424 119.667 385.941 114.761 382.03 113.691C372.95 111.128 368.175 124.486 368.131 124.617C368.065 124.8 367.93 124.95 367.755 125.035C367.58 125.12 367.379 125.133 367.194 125.071C367.011 125.005 366.863 124.87 366.78 124.694C366.698 124.518 366.689 124.317 366.755 124.134C366.755 123.988 372.027 109.356 382.426 112.271C386.058 113.296 388.021 116.943 387.947 122.523C387.83 130.066 383.832 140.259 379.321 141.387C378.265 141.672 377.177 141.819 376.084 141.827Z" fill="#263238"/>
<path d="M369.495 121.396C368.382 123.754 364.047 121.674 362.45 119.609C361.659 118.552 361.231 117.268 361.231 115.947C361.231 114.627 361.659 113.343 362.45 112.286C359.067 111.305 355.259 109.781 353.795 106.574C353.175 104.946 352.959 103.192 353.165 101.462C353.472 96.7611 354.629 92.0743 354.146 87.3876C353.663 82.7009 350.763 77.7944 346.12 76.9303C346.12 76.9303 330.009 105.768 299.619 94.1248C299.619 94.1248 286.071 100.598 279.905 89.5113C273.739 78.4242 282.058 66.7074 299.311 59.3111C299.311 59.3111 288.532 59.0036 288.839 53.4527C289.147 47.9019 315.305 46.364 333.803 50.421C333.803 50.421 331.62 40.7106 354.424 43.4788C377.228 46.2469 384.61 52.6765 387.407 68.5967C404.118 77.7066 385.342 115.259 385.342 115.259C385.342 115.259 376.511 106.413 369.495 121.396Z" fill="#263238"/>
<path d="M286.259 90.0384C284.549 93.0311 283.509 96.36 283.213 99.7944C282.918 103.229 283.372 106.687 284.546 109.928L289.247 117.251L288.515 92.3524L286.259 90.0384Z" fill="#263238"/>
<path d="M385.955 71.5553C385.883 71.5692 385.808 71.5692 385.736 71.5553C385.551 71.495 385.398 71.364 385.31 71.191C385.223 71.018 385.207 70.8172 385.267 70.6327C391.477 51.5928 378.222 42.8052 377.651 42.3804C377.489 42.2703 377.378 42.1013 377.339 41.9097C377.301 41.718 377.339 41.5189 377.446 41.3552C377.553 41.1947 377.72 41.0831 377.909 41.0447C378.098 41.0063 378.295 41.0442 378.457 41.1502C378.603 41.238 393.22 51.0216 386.658 71.0867C386.604 71.2278 386.507 71.3487 386.381 71.4326C386.255 71.5165 386.107 71.5594 385.955 71.5553Z" fill="#263238"/>
<path d="M294.434 86.318C290.044 86.4342 285.743 85.0725 282.219 82.4515C282.129 82.3991 282.05 82.3278 281.989 82.2424C281.928 82.1571 281.887 82.0597 281.867 81.9568C281.847 81.8539 281.849 81.748 281.873 81.6461C281.898 81.5442 281.944 81.4487 282.009 81.3662C282.073 81.2836 282.155 81.2159 282.248 81.1675C282.341 81.1192 282.443 81.0914 282.548 81.086C282.652 81.0805 282.757 81.0977 282.854 81.1361C282.952 81.1746 283.04 81.2336 283.113 81.3091C287.653 84.8534 294.493 85.8054 301.435 83.8575C307.44 82.1586 312.888 78.6874 318.146 75.3335L318.849 74.8795C324.707 71.1447 330.566 67.6736 336.952 66.2822C340.875 65.4546 344.924 65.4169 348.862 66.1713C352.799 66.9257 356.548 68.4571 359.887 70.676C363.153 72.8437 364.882 75.2749 364.999 77.8819C365.003 77.9781 364.988 78.0741 364.954 78.1645C364.921 78.2548 364.87 78.3377 364.805 78.4085C364.74 78.4792 364.661 78.5364 364.574 78.5767C364.486 78.617 364.392 78.6397 364.296 78.6435C364.199 78.6538 364.102 78.6436 364.01 78.6137C363.918 78.5838 363.833 78.5347 363.761 78.4697C363.689 78.4047 363.632 78.3253 363.593 78.2366C363.554 78.148 363.534 78.052 363.534 77.9551C363.432 75.8315 361.938 73.7957 359.14 71.8917C352.695 67.6907 344.85 66.2111 337.318 67.7761C331.108 69.1089 325.601 72.375 319.742 76.1683L319.039 76.6223C313.679 80.0349 308.143 83.5646 301.933 85.3221C299.491 85.999 296.968 86.3341 294.434 86.318Z" fill="white"/>
<path d="M370.328 69.4457C370.168 69.4448 370.012 69.3913 369.885 69.2934C369.758 69.1955 369.667 69.0586 369.625 68.9038C368.723 66.2062 367.203 63.7567 365.186 61.7505C363.17 59.7443 360.713 58.2367 358.011 57.3481C352.958 55.5466 346.865 55.3123 339.381 56.6304C336.452 57.143 333.523 57.846 330.711 58.5197C327.415 59.296 324.003 60.1162 320.576 60.6434C315.479 61.4489 308.624 61.4196 305.036 56.7622C304.97 56.687 304.921 56.5991 304.89 56.5039C304.859 56.4088 304.848 56.3083 304.858 56.2088C304.868 56.1093 304.898 56.0129 304.946 55.9254C304.995 55.8379 305.06 55.7613 305.139 55.7002C305.219 55.6391 305.309 55.5948 305.406 55.5701C305.503 55.5455 305.604 55.5409 305.703 55.5567C305.802 55.5725 305.896 55.6083 305.98 55.662C306.065 55.7157 306.137 55.7861 306.193 55.8688C309.342 59.955 315.64 59.9404 320.356 59.1935C323.71 58.6662 327.108 57.8607 330.374 57.0844C333.23 56.4107 336.232 55.7077 339.161 55.1951C346.909 53.8184 353.236 54.082 358.523 55.9713C361.448 56.9358 364.105 58.5724 366.282 60.7496C368.459 62.9269 370.096 65.5842 371.061 68.5083C371.087 68.6016 371.095 68.6993 371.084 68.7956C371.072 68.892 371.042 68.9851 370.994 69.0696C370.946 69.1541 370.882 69.2282 370.806 69.2878C370.729 69.3473 370.642 69.391 370.548 69.4164L370.328 69.4457Z" fill="white"/>
<path d="M537.337 505.62H41.8023C40.4711 505.616 39.1956 505.086 38.2543 504.144C37.3131 503.203 36.7826 501.928 36.7787 500.596C36.7787 499.264 37.308 497.986 38.2501 497.044C39.1922 496.102 40.4699 495.573 41.8023 495.573H537.337C538.669 495.573 539.947 496.102 540.889 497.044C541.831 497.986 542.36 499.264 542.36 500.596C542.356 501.928 541.826 503.203 540.885 504.144C539.943 505.086 538.668 505.616 537.337 505.62Z" fill="#263238"/>
<path d="M534.584 501.329H42.4768C42.2826 501.329 42.0963 501.252 41.959 501.114C41.8217 500.977 41.7445 500.791 41.7445 500.596C41.7445 500.402 41.8217 500.216 41.959 500.079C42.0963 499.941 42.2826 499.864 42.4768 499.864H534.584C534.778 499.864 534.964 499.941 535.102 500.079C535.239 500.216 535.316 500.402 535.316 500.596C535.316 500.791 535.239 500.977 535.102 501.114C534.964 501.252 534.778 501.329 534.584 501.329Z" fill="white"/>
<path d="M85.321 511.35C92.4452 503.638 91.9684 491.61 84.2561 484.486C76.5438 477.362 64.5164 477.839 57.3922 485.551C50.268 493.263 50.7448 505.291 58.4571 512.415C66.1694 519.539 78.1968 519.062 85.321 511.35Z" fill="white"/>
<path d="M71.3588 518.185C67.4541 518.185 63.637 517.027 60.3903 514.858C57.1436 512.689 54.6131 509.605 53.1188 505.998C51.6245 502.39 51.2335 498.42 51.9953 494.591C52.7571 490.761 54.6374 487.243 57.3985 484.482C60.1596 481.721 63.6775 479.841 67.5072 479.079C71.3369 478.317 75.3066 478.708 78.9141 480.202C82.5216 481.697 85.6051 484.227 87.7744 487.474C89.9438 490.721 91.1017 494.538 91.1017 498.442C91.0978 503.677 89.0165 508.697 85.3149 512.398C81.6132 516.1 76.5938 518.181 71.3588 518.185ZM71.3588 480.106C67.7437 480.106 64.2098 481.178 61.204 483.186C58.1981 485.194 55.8554 488.049 54.4719 491.389C53.0885 494.729 52.7265 498.404 53.4318 501.95C54.1371 505.495 55.8779 508.752 58.4342 511.308C60.9904 513.865 64.2473 515.606 67.7929 516.311C71.3386 517.016 75.0137 516.654 78.3536 515.271C81.6935 513.887 84.5482 511.544 86.5567 508.539C88.5651 505.533 89.6371 501.999 89.6371 498.384C89.6139 493.549 87.6789 488.919 84.2544 485.505C80.8299 482.092 76.1941 480.172 71.3588 480.164V480.106Z" fill="#263238"/>
<path d="M81.4058 498.443C81.4058 500.431 80.8165 502.373 79.7125 504.025C78.6085 505.678 77.0394 506.965 75.2035 507.726C73.3676 508.486 71.3474 508.685 69.3985 508.298C67.4495 507.91 65.6593 506.953 64.2542 505.548C62.849 504.143 61.8921 502.353 61.5045 500.404C61.1168 498.455 61.3158 496.434 62.0762 494.599C62.8367 492.763 64.1244 491.194 65.7767 490.09C67.4289 488.986 69.3714 488.396 71.3586 488.396C74.0233 488.396 76.5788 489.455 78.463 491.339C80.3472 493.223 81.4058 495.779 81.4058 498.443Z" fill="#BB6BD9"/>
<path d="M71.3585 509.179C69.2265 509.179 67.1424 508.547 65.3697 507.362C63.597 506.178 62.2154 504.494 61.3995 502.524C60.5836 500.555 60.3702 498.387 60.7861 496.296C61.202 494.205 62.2287 492.285 63.7362 490.777C65.2438 489.27 67.1645 488.243 69.2555 487.827C71.3465 487.411 73.5139 487.624 75.4836 488.44C77.4533 489.256 79.1368 490.638 80.3213 492.411C81.5058 494.183 82.138 496.267 82.138 498.399C82.1341 501.257 80.9971 503.997 78.9764 506.017C76.9557 508.038 74.2162 509.175 71.3585 509.179ZM71.3585 489.084C69.5162 489.084 67.7152 489.631 66.1834 490.654C64.6516 491.678 63.4577 493.133 62.7526 494.835C62.0476 496.537 61.8632 498.41 62.2226 500.217C62.582 502.023 63.4691 503.683 64.7719 504.986C66.0746 506.289 67.7343 507.176 69.5412 507.535C71.3481 507.895 73.221 507.71 74.9231 507.005C76.6252 506.3 78.08 505.106 79.1035 503.574C80.1271 502.043 80.6734 500.242 80.6734 498.399C80.6579 495.938 79.6702 493.582 77.9254 491.845C76.1806 490.109 73.8202 489.132 71.3585 489.128V489.084Z" fill="#263238"/>
</svg>
