<svg xmlns="http://www.w3.org/2000/svg" width="60" height="406" fill="none"><path fill="#8247E5" d="M32 7.107v350h-4v-350z"/><rect width="60" height="60" fill="#8247E5" rx="30"/><path fill="#fff" d="M26.885 23v-2.496h4.992V38h-2.76V23h-2.232Z"/><rect width="60" height="60" y="173" fill="#8247E5" rx="30"/><path fill="#fff" d="M26.026 207.28c1.536-1.328 2.744-2.416 3.624-3.264.896-.864 1.64-1.76 2.232-2.688.592-.928.888-1.856.888-2.784 0-.96-.232-1.712-.696-2.256-.448-.544-1.16-.816-2.136-.816-.944 0-1.68.304-2.208.912-.512.592-.784 1.392-.816 2.4h-2.64c.048-1.824.592-3.216 1.632-4.176 1.056-.976 2.392-1.464 4.008-1.464 1.744 0 3.104.48 4.08 1.44.992.96 1.488 2.24 1.488 3.84 0 1.152-.296 2.264-.888 3.336a13.241 13.241 0 0 1-2.088 2.856c-.8.832-1.824 1.8-3.072 2.904l-1.08.96h7.608v2.28H24.298v-1.992l1.728-1.488Z"/><rect width="60" height="60" y="346" fill="#8247E5" rx="30"/><path fill="#fff" d="M24.267 370.824c.096-1.488.664-2.648 1.704-3.48 1.056-.832 2.4-1.248 4.032-1.248 1.12 0 2.088.2 2.904.6.816.4 1.432.944 1.848 1.632.416.688.624 1.464.624 2.328 0 .992-.264 1.84-.792 2.544s-1.16 1.176-1.896 1.416v.096c.944.288 1.68.816 2.208 1.584.528.752.792 1.72.792 2.904 0 .944-.216 1.784-.648 2.52-.432.736-1.072 1.32-1.92 1.752-.848.416-1.864.624-3.048.624-1.728 0-3.152-.44-4.272-1.32-1.104-.896-1.696-2.176-1.776-3.84h2.64c.064.848.392 1.544.984 2.088.592.528 1.392.792 2.4.792.976 0 1.728-.264 2.256-.792.528-.544.792-1.24.792-2.088 0-1.12-.36-1.912-1.08-2.376-.704-.48-1.792-.72-3.264-.72h-.624v-2.256h.648c1.296-.016 2.28-.232 2.952-.648.688-.416 1.032-1.072 1.032-1.968 0-.768-.248-1.376-.744-1.824-.496-.464-1.2-.696-2.112-.696-.896 0-1.592.232-2.088.696a2.712 2.712 0 0 0-.888 1.68h-2.664Z"/></svg>