<svg xmlns="http://www.w3.org/2000/svg" width="40" height="40" fill="none"><circle cx="20" cy="20" r="20" fill="url(#a)"/>
<path fill="#fff" d="M29.15 14.17c-.41-.22-1.27-.45-2.44.37l-1.47 1.04c-.11-3.11-1.46-4.33-4.74-4.33h-6c-3.42 0-4.75 1.33-4.75 4.75v8c0 2.3 1.25 4.75 4.75 4.75h6c3.28 0 4.63-1.22 4.74-4.33l1.47 1.04c.62.44 1.16.58 1.59.58.37 0 .66-.11.85-.21.41-.21 1.1-.78 1.1-2.21v-7.24c0-1.43-.69-2-1.1-2.21ZM19 19.38c-1.03 0-1.88-.84-1.88-1.88s.85-1.88 1.88-1.88c1.03 0 1.88.84 1.88 1.88s-.85 1.88-1.88 1.88Z"/><defs><linearGradient id="a" x1="20" x2="20" y1="0" y2="40" gradientUnits="userSpaceOnUse"><stop stop-color="#8247E5"/><stop offset="1" stop-color="#4969CE" stop-opacity=".6"/></linearGradient></defs></svg>